<?xml version="1.0" encoding="utf-8"?>
<!-- Generator: Adobe Illustrator 18.0.0, SVG Export Plug-In . SVG Version: 6.00 Build 0)  -->
<!DOCTYPE svg PUBLIC "-//W3C//DTD SVG 1.1//EN" "http://www.w3.org/Graphics/SVG/1.1/DTD/svg11.dtd">
<svg version="1.1" id="Layer_1" xmlns="http://www.w3.org/2000/svg" xmlns:xlink="http://www.w3.org/1999/xlink" x="0px" y="0px"
	 viewBox="0 0 612 612" enable-background="new 0 0 612 612" xml:space="preserve">
<g transform="translate(1 1)">
	<g>
		<g>
			<path fill="#1DB0E6" d="M580.4,90.8H29.6C12.3,90.8-1,104.1-1,121.4v204c0,17.3,13.3,30.6,30.6,30.6h550.8
				c17.3,0,30.6-13.3,30.6-30.6v-204C611,104.1,597.7,90.8,580.4,90.8z M590.6,325.4c0,6.1-4.1,10.2-10.2,10.2H29.6
				c-6.1,0-10.2-4.1-10.2-10.2v-204c0-6.1,5.1-10.2,10.2-10.2h550.8c6.1,0,10.2,4.1,10.2,10.2L590.6,325.4L590.6,325.4z"/>
			<path fill="#1DB0E6" d="M264.2,182.6h81.6c6.1,0,10.2-4.1,10.2-10.2s-4.1-10.2-10.2-10.2h-81.6c-6.1,0-10.2,4.1-10.2,10.2
				S258.1,182.6,264.2,182.6z"/>
			<path fill="#1DB0E6" d="M560,294.8H50c-6.1,0-10.2,4.1-10.2,10.2c0,6.1,4.1,10.2,10.2,10.2h510c6.1,0,10.2-4.1,10.2-10.2
				C570.2,298.9,566.1,294.8,560,294.8z"/>
			<path fill="#1DB0E6" d="M560,254H50c-6.1,0-10.2,4.1-10.2,10.2s4.1,10.2,10.2,10.2h510c6.1,0,10.2-4.1,10.2-10.2
				S566.1,254,560,254z"/>
			<path fill="#1DB0E6" d="M310.1,428.4c-10.2-5.1-15.3-11.2-15.3-16.3s6.1-11.2,14.3-17.3c5.1-2,6.1-8.2,4.1-13.3
				c-2-5.1-8.2-7.1-13.3-4.1c-16.3,9.2-25.5,21.4-25.5,34.7c0,13.3,9.2,25.5,25.5,35.7c10.2,5.1,15.3,11.2,15.3,16.3
				c0,5.1-6.1,11.2-15.3,16.3c-5.1,2-7.1,8.2-4.1,13.3c2,3.1,5.1,5.1,9.2,5.1c2,0,3.1,0,5.1-1c16.3-9.2,25.5-21.4,25.5-34.7
				C335.6,449.8,326.4,436.6,310.1,428.4z"/>
			<path fill="#1DB0E6" d="M197.9,448.8c-10.2-5.1-15.3-11.2-15.3-16.3c0-5.1,6.1-11.2,14.3-17.3c5.1-2,7.1-8.2,4.1-13.3
				c-2-5.1-8.2-7.1-13.3-4.1c-16.3,9.2-25.5,21.4-25.5,34.7c0,13.3,9.2,25.5,25.5,35.7c10.2,5.1,15.3,11.2,15.3,16.3
				c0,5.1-6.1,11.2-15.3,16.3c-5.1,2-7.1,8.2-4.1,13.3c2,3.1,5.1,5.1,9.2,5.1c2,0,3.1,0,5.1-1c16.3-9.2,25.5-21.4,25.5-34.7
				S214.2,457,197.9,448.8z"/>
			<path fill="#1DB0E6" d="M422.3,448.8c-10.2-5.1-15.3-11.2-15.3-16.3c0-5.1,6.1-11.2,14.3-17.3c5.1-2,6.1-8.2,4.1-13.3
				c-2-5.1-8.2-7.1-13.3-4.1c-16.3,9.2-25.5,21.4-25.5,34.7c0,13.3,9.2,25.5,25.5,35.7c10.2,5.1,15.3,11.2,15.3,16.3
				c0,5.1-6.1,11.2-15.3,16.3c-5.1,2-7.1,8.2-4.1,13.3c2,3.1,5.1,5.1,9.2,5.1c2,0,3.1,0,5.1-1c16.3-9.2,25.5-21.4,25.5-34.7
				S438.6,457,422.3,448.8z"/>
		</g>
	</g>
</g>
</svg>
