<?xml version="1.0" encoding="utf-8"?>
<!-- Generator: Adobe Illustrator 18.0.0, SVG Export Plug-In . SVG Version: 6.00 Build 0)  -->
<!DOCTYPE svg PUBLIC "-//W3C//DTD SVG 1.1//EN" "http://www.w3.org/Graphics/SVG/1.1/DTD/svg11.dtd">
<svg version="1.1" id="Capa_1" xmlns="http://www.w3.org/2000/svg" xmlns:xlink="http://www.w3.org/1999/xlink" x="0px" y="0px"
	 viewBox="0 0 612 612" enable-background="new 0 0 612 612" xml:space="preserve">
<g>
	<g>
		<path fill="#1DB0E6" d="M601.8,346.8h-10.2v-30.6c0-20.3-12-38.6-30.6-46.7V112.2c0-4.1-2.4-7.7-6.1-9.3c4-6.4,6.1-13.7,6.1-21.3
			c0-22.5-18.3-40.8-40.8-40.8c-22.5,0-40.8,18.3-40.8,40.8c0,7.2,2,14.2,5.7,20.4H126.9c3.7-6.2,5.6-13.2,5.7-20.4
			c0-22.5-18.3-40.8-40.8-40.8S51,59.1,51,81.6c0,7.5,2.1,14.9,6.1,21.3c-3.7,1.6-6.1,5.3-6.1,9.3v157.3
			c-18.6,8.1-30.6,26.4-30.6,46.7v30.6H10.2C4.6,346.8,0,351.4,0,357v142.8c0,5.6,4.6,10.2,10.2,10.2h10.2v51
			c0,5.6,4.6,10.2,10.2,10.2h40.8c5.6,0,10.2-4.6,10.2-10.2v-51h448.8v51c0,5.6,4.6,10.2,10.2,10.2h40.8c5.6,0,10.2-4.6,10.2-10.2
			v-51h10.2c5.6,0,10.2-4.6,10.2-10.2V357C612,351.4,607.4,346.8,601.8,346.8z M520.2,61.2c11.3,0,20.4,9.1,20.4,20.4
			s-9.1,20.4-20.4,20.4c-11.3,0-20.4-9.1-20.4-20.4S508.9,61.2,520.2,61.2z M91.8,61.2c11.3,0,20.4,9.1,20.4,20.4
			S103.1,102,91.8,102s-20.4-9.1-20.4-20.4S80.5,61.2,91.8,61.2z M71.4,122.4h469.2v142.8h-41.1c6.7-8.8,10.4-19.5,10.5-30.6v-20.4
			c0-28.2-22.8-51-51-51h-81.6c-28.2,0-51,22.8-51,51v20.4c0,11.1,3.7,21.8,10.5,30.6h-61.7c6.7-8.8,10.4-19.5,10.5-30.6v-20.4
			c0-28.2-22.8-51-51-51H153c-28.2,0-51,22.8-51,51v20.4c0,11.1,3.7,21.8,10.5,30.6H71.4V122.4z M489.6,214.2v20.4
			c0,16.9-13.7,30.6-30.6,30.6h-81.6c-16.9,0-30.6-13.7-30.6-30.6v-20.4c0-16.9,13.7-30.6,30.6-30.6H459
			C475.9,183.6,489.6,197.3,489.6,214.2z M265.2,214.2v20.4c0,16.9-13.7,30.6-30.6,30.6H153c-16.9,0-30.6-13.7-30.6-30.6v-20.4
			c0-16.9,13.7-30.6,30.6-30.6h81.6C251.5,183.6,265.2,197.3,265.2,214.2z M40.8,316.2c0-16.9,13.7-30.6,30.6-30.6h469.2
			c16.9,0,30.6,13.7,30.6,30.6v30.6H40.8V316.2z M61.2,550.8H40.8V510h20.4V550.8z M571.2,550.8h-20.4V510h20.4V550.8z M591.6,489.6
			H20.4V367.2h571.2V489.6z"/>
	</g>
</g>
<g>
	<g>
		<path fill="#4DD1F4" d="M91.8,448.8H51c-5.6,0-10.2,4.6-10.2,10.2c0,5.6,4.6,10.2,10.2,10.2h40.8c5.6,0,10.2-4.6,10.2-10.2
			C102,453.4,97.4,448.8,91.8,448.8z"/>
	</g>
</g>
<g>
	<g>
		<path fill="#4DD1F4" d="M561,448.8H132.6c-5.6,0-10.2,4.6-10.2,10.2c0,5.6,4.6,10.2,10.2,10.2H561c5.6,0,10.2-4.6,10.2-10.2
			C571.2,453.4,566.6,448.8,561,448.8z"/>
	</g>
</g>
</svg>
