<?xml version="1.0" encoding="iso-8859-1"?>
<!-- Generator: Adobe Illustrator 18.0.0, SVG Export Plug-In . SVG Version: 6.00 Build 0)  -->
<!DOCTYPE svg PUBLIC "-//W3C//DTD SVG 1.1//EN" "http://www.w3.org/Graphics/SVG/1.1/DTD/svg11.dtd">
<svg version="1.1" id="Capa_1" xmlns="http://www.w3.org/2000/svg" xmlns:xlink="http://www.w3.org/1999/xlink" x="0px" y="0px"
	 viewBox="0 0 512 512" style="enable-background:new 0 0 512 512;" xml:space="preserve">
<g>
	<path style="fill:#3CB44A;" d="M248,240V112H80c-8.836,0-16,7.164-16,16v128h168C240.837,256,248,248.837,248,240z"/>
	<path style="fill:#3CB44A;" d="M432,112H264v128c0,8.837,7.163,16,16,16h168V128C448,119.164,440.836,112,432,112z"/>
	<path style="fill:#0E9247;" d="M264,240V112h-16v128c0,8.837-7.163,16-16,16H64v40c0,8.837,7.163,16,16,16h352
		c8.837,0,16-7.163,16-16v-40H280C271.163,256,264,248.837,264,240z"/>
	<path style="fill:#3F556B;" d="M496,200h-32c-8.837,0-16,7.163-16,16v80c0,8.837-7.163,16-16,16H80c-8.837,0-16-7.163-16-16v-80
		c0-8.837-7.163-16-16-16H16c-8.837,0-16,7.163-16,16v152c0,8.837,7.163,16,16,16h480c8.837,0,16-7.163,16-16V216
		C512,207.163,504.837,200,496,200z"/>
	<path style="fill:#35495C;" d="M460.422,392.845C462.39,396.78,467.6,400,472,400h16c4.4,0,8-3.6,8-8v-8h-40L460.422,392.845z"/>
	<path style="fill:#35495C;" d="M16,384v8c0,4.4,3.6,8,8,8h16c4.4,0,9.609-3.22,11.578-7.155L56,384H16z"/>
	<circle style="fill:#73AE43;" cx="328" cy="160" r="8"/>
	<circle style="fill:#73AE43;" cx="392" cy="160" r="8"/>
	<circle style="fill:#73AE43;" cx="328" cy="208" r="8"/>
	<circle style="fill:#73AE43;" cx="392" cy="208" r="8"/>
	<circle style="fill:#0E9247;" cx="328" cy="160" r="8"/>
	<circle style="fill:#0E9247;" cx="392" cy="160" r="8"/>
	<circle style="fill:#0E9247;" cx="328" cy="208" r="8"/>
	<circle style="fill:#0E9247;" cx="392" cy="208" r="8"/>
	<g>
		<circle style="fill:#0E9247;" cx="128" cy="160" r="8"/>
	</g>
	<g>
		<circle style="fill:#0E9247;" cx="192" cy="160" r="8"/>
	</g>
	<g>
		<circle style="fill:#0E9247;" cx="128" cy="208" r="8"/>
	</g>
	<g>
		<circle style="fill:#0E9247;" cx="192" cy="208" r="8"/>
	</g>
	<path style="fill:#35495C;" d="M432,312H80c-8.837,0-16-7.163-16-16v88h16v-40c0-8.837,7.163-16,16-16h320c8.837,0,16,7.163,16,16
		v40h16v-88C448,304.837,440.837,312,432,312z"/>
	<path style="fill:#04803D;" d="M448,256L448,256c-8.837,0-16,7.163-16,16v16.001c0,4.418-3.582,8-8,8L64,296
		c0,8.837,7.163,16,16,16h352c8.837,0,16-7.163,16-16V256z"/>
</g>
<g>
</g>
<g>
</g>
<g>
</g>
<g>
</g>
<g>
</g>
<g>
</g>
<g>
</g>
<g>
</g>
<g>
</g>
<g>
</g>
<g>
</g>
<g>
</g>
<g>
</g>
<g>
</g>
<g>
</g>
</svg>
