<?xml version="1.0" encoding="utf-8"?>
<!-- Generator: Adobe Illustrator 18.0.0, SVG Export Plug-In . SVG Version: 6.00 Build 0)  -->
<!DOCTYPE svg PUBLIC "-//W3C//DTD SVG 1.1//EN" "http://www.w3.org/Graphics/SVG/1.1/DTD/svg11.dtd">
<svg version="1.1" id="Layer_1" xmlns="http://www.w3.org/2000/svg" xmlns:xlink="http://www.w3.org/1999/xlink" x="0px" y="0px"
	 viewBox="0 0 612 612" enable-background="new 0 0 612 612" xml:space="preserve">
<g>
	<g>
		<g>
			<path fill="#1DB0E6" d="M584.2,308.6v-86c0-29.2-22.6-52.9-51.2-55.2L453.1,27.8c-7.4-12.9-19.4-22.1-33.7-26
				c-14.2-3.8-29.1-1.8-41.9,5.6L103.7,166.9H55.6C25,166.9,0,191.9,0,222.6v333.8C0,587,25,612,55.6,612h472.9
				c30.7,0,55.6-25,55.6-55.6v-86c16.2-5.8,27.8-21.1,27.8-39.2v-83.5C612,329.6,600.3,314.3,584.2,308.6z M500.6,166.9H379.4
				l90.9-52.9L500.6,166.9z M456.5,89.8l-132.4,77.1h-54.9L442.8,65.9L456.5,89.8z M391.6,31.5c6.3-3.7,13.6-4.7,20.7-2.8
				c7.1,1.9,13,6.5,16.7,12.9l0,0.1l-215,125.2H159L391.6,31.5z M556.4,556.4c0,15.3-12.5,27.8-27.8,27.8H55.6
				c-15.3,0-27.8-12.5-27.8-27.8V222.6c0-15.3,12.5-27.8,27.8-27.8h472.9c15.3,0,27.8,12.5,27.8,27.8V306h-83.5
				c-46,0-83.5,37.4-83.5,83.5s37.4,83.5,83.5,83.5h83.5L556.4,556.4L556.4,556.4z M584.2,431.2c0,7.7-6.2,13.9-13.9,13.9h-97.4
				c-30.7,0-55.6-25-55.6-55.6c0-30.7,25-55.6,55.6-55.6h97.4c7.7,0,13.9,6.2,13.9,13.9V431.2z"/>
			<path fill="#1DB0E6" d="M472.9,361.6c-15.3,0-27.8,12.5-27.8,27.8s12.5,27.8,27.8,27.8s27.8-12.5,27.8-27.8
				C500.7,374.1,488.2,361.6,472.9,361.6z"/>
		</g>
	</g>
</g>
</svg>
