<?xml version="1.0" encoding="utf-8"?>
<!-- Generator: Adobe Illustrator 18.0.0, SVG Export Plug-In . SVG Version: 6.00 Build 0)  -->
<!DOCTYPE svg PUBLIC "-//W3C//DTD SVG 1.1//EN" "http://www.w3.org/Graphics/SVG/1.1/DTD/svg11.dtd">
<svg version="1.1" id="Capa_1" xmlns="http://www.w3.org/2000/svg" xmlns:xlink="http://www.w3.org/1999/xlink" x="0px" y="0px"
	 viewBox="0 0 612 612" enable-background="new 0 0 612 612" xml:space="preserve">
<g>
	<g>
		<path fill="#1DB0E6" d="M601.8,183.6h-30.6v-15.3c0-19.7-16-35.7-35.7-35.7c-5.3,0-10.5,1.3-15.3,3.6v-13.8
			c0-22.5-18.3-40.8-40.8-40.8s-40.8,18.3-40.8,40.8v61.2h-40.8v-10.2c0.1-16.8-13.5-30.5-30.3-30.6c-7.6,0-15,2.8-20.7,8
			c-11.5-10.6-29.3-10.6-40.8,0c-11.5-10.6-29.3-10.6-40.8,0c-12.4-11.3-31.7-10.5-43,2c-5.2,5.6-8,13-8,20.7v10.2h-40.8v-61.2
			c0-22.5-18.3-40.8-40.8-40.8s-40.8,18.3-40.8,40.8v13.8c-4.8-2.3-10-3.6-15.3-3.6c-19.7,0-35.7,16-35.7,35.7v15.3H10.2
			c-5.6,0-10.2,4.6-10.2,10.2V255c0,5.6,4.6,10.2,10.2,10.2h30.6v15.3c0,19.7,16,35.7,35.7,35.7c5.3,0,10.5-1.3,15.3-3.6v13.8
			c0,22.5,18.3,40.8,40.8,40.8s40.8-18.3,40.8-40.8v-61.2h20.4v34.1c0,13.5,5.3,26.5,14.9,36.1l25.9,25.9v169.2H255V357
			c0-2.7-1.1-5.3-3-7.2l-28.8-28.9c-5.7-5.7-8.9-13.5-9-21.6v-64.7h59.7c3.9-0.1,7.5,1.7,9.9,4.8c0.1,0.1,0.2,0.2,0.2,0.3
			c0.4,0.7,0.8,1.4,1,2.2c0.2,0.6,0.3,1.3,0.4,1.9c0.1,0.6,0.1,1.3,0,1.9c0,0.3-0.1,0.7-0.1,1c-0.2,1.1-0.6,2.1-1.2,3.1
			c-1.8,3.2-5.1,5.1-8.7,5.1h-30.6c-5.6,0-10.2,4.6-10.2,10.2v20.4c0,4.4,2.8,8.3,7,9.7l22.4,7.5c18.2,6,31.8,33.6,31.8,54.2h20.4
			c0-28.1-17.5-64.2-45.7-73.6l-15.5-5.2v-2.8h20.4c8.6-0.1,16.7-3.8,22.4-10.2h89.8v37.4c0,6.6-2.2,13.1-6.1,18.4L359,350.9
			c-1.3,1.8-2,3.9-2,6.1v173.4h20.4v-170l20.4-27.2c6.6-8.8,10.2-19.6,10.2-30.6v-37.4h30.6v61.2c0,22.5,18.3,40.8,40.8,40.8
			s40.8-18.3,40.8-40.8v-13.8c4.8,2.3,10,3.6,15.3,3.6c19.7,0,35.7-16,35.7-35.7v-15.3h30.6c5.6,0,10.2-4.6,10.2-10.2v-61.2
			C612,188.2,607.4,183.6,601.8,183.6z M40.8,244.8H20.4V204h20.4V244.8z M91.8,280.5c0,8.4-6.9,15.3-15.3,15.3s-15.3-6.9-15.3-15.3
			V168.3c0-8.4,6.9-15.3,15.3-15.3s15.3,6.9,15.3,15.3V280.5z M153,326.4c0,11.3-9.1,20.4-20.4,20.4c-11.3,0-20.4-9.1-20.4-20.4
			v-204c0-11.3,9.1-20.4,20.4-20.4c11.3,0,20.4,9.1,20.4,20.4V326.4z M204,214.2c-5.6,0-10.2,4.6-10.2,10.2v20.4h-20.4V204h40.8
			c0,1.9,0.2,3.9,0.6,5.7c0.1,0.6,0.3,1.2,0.4,1.7c0.2,0.9,0.4,1.8,0.7,2.7H204z M255,204c0,5.6-4.6,10.2-10.2,10.2
			c-5.6,0-10.2-4.6-10.2-10.2v-30.6c0-5.6,4.6-10.2,10.2-10.2c5.6,0,10.2,4.6,10.2,10.2V204z M295.8,204c0,5.6-4.6,10.2-10.2,10.2
			c-5.6,0-10.2-4.6-10.2-10.2v-30.6c0-5.6,4.6-10.2,10.2-10.2c5.6,0,10.2,4.6,10.2,10.2V204z M357,173.4c0-5.6,4.6-10.2,10.2-10.2
			c5.6,0,10.2,4.6,10.2,10.2V204c0,5.6-4.6,10.2-10.2,10.2c-5.6,0-10.2-4.6-10.2-10.2V173.4z M316.2,173.4c0-5.6,4.6-10.2,10.2-10.2
			s10.2,4.6,10.2,10.2V204c0,5.6-4.6,10.2-10.2,10.2s-10.2-4.6-10.2-10.2V173.4z M438.6,244.8L438.6,244.8H306c0-0.1,0-0.2,0-0.3
			c0-2-0.2-4.1-0.6-6c-0.1-0.3-0.2-0.5-0.3-0.8c-0.2-0.7-0.4-1.4-0.7-2.2c-0.4-1.3-1-2.6-1.6-3.8c-0.3-0.6-0.4-1.3-0.8-1.9
			c0.1-0.1,0.2-0.2,0.3-0.3c0.5-0.3,0.9-0.7,1.3-1c0.8-0.6,1.6-1.1,2.3-1.7c0.6,0.5,1.3,0.9,1.9,1.4s1.3,1,1.9,1.4
			c1,0.6,2,1.1,3,1.6c0.7,0.3,1.3,0.7,2,1c1.2,0.5,2.4,0.8,3.7,1.1c0.6,0.2,1.2,0.4,1.9,0.6c3.9,0.8,8,0.8,11.9,0
			c0.7-0.1,1.3-0.4,1.9-0.6c1.2-0.3,2.5-0.7,3.7-1.1c0.7-0.3,1.4-0.7,2-1c1-0.5,2-1,3-1.6c0.7-0.4,1.3-1,1.9-1.4
			c0.6-0.5,1.3-0.9,1.9-1.4c0.6,0.5,1.3,0.9,1.9,1.4c0.6,0.5,1.3,1,1.9,1.4c1,0.6,2,1.1,3,1.6c0.7,0.3,1.3,0.7,2,1
			c1.2,0.5,2.4,0.8,3.7,1.1c0.6,0.2,1.2,0.4,1.9,0.6c16.5,3.4,32.6-7.3,36-23.8c0.4-2,0.6-4.1,0.6-6.1h40.8L438.6,244.8L438.6,244.8
			z M499.8,326.4c0,11.3-9.1,20.4-20.4,20.4s-20.4-9.1-20.4-20.4v-204c0-11.3,9.1-20.4,20.4-20.4s20.4,9.1,20.4,20.4V326.4z
			 M550.8,280.5c0,8.4-6.9,15.3-15.3,15.3s-15.3-6.9-15.3-15.3V168.3c0-8.4,6.9-15.3,15.3-15.3s15.3,6.9,15.3,15.3V280.5z
			 M591.6,244.8h-20.4V204h20.4V244.8z"/>
	</g>
</g>
</svg>
