<?xml version="1.0" encoding="utf-8"?>
<!-- Generator: Adobe Illustrator 18.0.0, SVG Export Plug-In . SVG Version: 6.00 Build 0)  -->
<!DOCTYPE svg PUBLIC "-//W3C//DTD SVG 1.1//EN" "http://www.w3.org/Graphics/SVG/1.1/DTD/svg11.dtd">
<svg version="1.1" id="Capa_1" xmlns="http://www.w3.org/2000/svg" xmlns:xlink="http://www.w3.org/1999/xlink" x="0px" y="0px"
	 viewBox="0 0 612 612" enable-background="new 0 0 612 612" xml:space="preserve">
<g>
	<path fill="#1DB0E6" d="M578.8,51.5v-0.9h-3H35.9h-3v0.9C15.3,52.7,2.1,66.8,0,83.8v3v355.7c0,6.9,1.8,12.7,4.8,17.9
		c6.9,12.1,17.1,18.3,31.1,18.3h197v49.7h-37.4c-9.3,0-16.5,7.2-16.5,16.5c0,9.3,7.2,16.5,16.5,16.5h220.7c9.3,0,16.8-7.2,16.8-16.5
		c0-9.3-7.5-16.5-16.8-16.5h-37.4v-49.7h197c14.1,0,24.3-6.1,31.1-18.3c3.1-5.5,5.1-11.4,5.1-17.9V86.8v-3
		C609.9,66.8,595.8,52.7,578.8,51.5z M578.8,86.8v355.7c0,2.1-0.9,3-3,3H35.9c-2.1,0-3-0.9-3-3V86.8v-3h545.8L578.8,86.8L578.8,86.8
		z"/>
</g>
</svg>
