<?xml version="1.0" encoding="utf-8"?>
<!-- Generator: Adobe Illustrator 18.0.0, SVG Export Plug-In . SVG Version: 6.00 Build 0)  -->
<!DOCTYPE svg PUBLIC "-//W3C//DTD SVG 1.1//EN" "http://www.w3.org/Graphics/SVG/1.1/DTD/svg11.dtd">
<svg version="1.1" id="Capa_1" xmlns="http://www.w3.org/2000/svg" xmlns:xlink="http://www.w3.org/1999/xlink" x="0px" y="0px"
	 viewBox="0 0 612 612" enable-background="new 0 0 612 612" xml:space="preserve">
<g>
	<path fill="#1DB0E6" d="M177.6,282.4h-6.7v-54.4c0-6.4-5.2-11.7-11.7-11.7h-1V105.2c0-4.4-2.5-8.5-6.4-10.4L61.5,49.6
		c-3.6-1.8-7.9-1.6-11.4,0.5c-3.4,2.1-5.5,5.9-5.5,9.9v156.4h-1c-6.4,0-11.7,5.2-11.7,11.7v54.4h-6.7c-6.4,0-11.7,5.2-11.7,11.7
		v306.2c0,6.4,5.2,11.7,11.7,11.7h152.4c6.4,0,11.7-5.2,11.7-11.7V294.1C189.3,287.7,184.1,282.4,177.6,282.4z M68,78.9l67,33.5v104
		H68C68,216.4,68,78.9,68,78.9z M55.3,239.7h92.3v42.7H55.3V239.7z M165.9,588.7h-129V305.8h129V588.7z"/>
	<path fill="#1DB0E6" d="M586.8,473.3H207.8c-6.4,0-11.7,5.2-11.7,11.7s5.2,11.7,11.7,11.7h360.4l-2.7,5.5
		c-14.7,30.5-46,50.1-79.8,50.1h-278c-6.4,0-11.7,5.2-11.7,11.7s5.2,11.7,11.7,11.7h278c42.7,0,82.3-24.9,100.8-63.3l10.7-22.3
		c1.7-3.6,1.5-7.9-0.6-11.3C594.5,475.4,590.8,473.3,586.8,473.3z"/>
	<path fill="#1DB0E6" d="M180.9,85.8C224.4,45.5,281,23.3,340.3,23.3c129.4,0,234.8,105.3,234.8,234.8c0,69.8-30.8,135.5-84.4,180.3
		c-4.9,4.1-5.6,11.5-1.5,16.4c2.3,2.8,5.6,4.2,9,4.2c2.6,0,5.3-0.9,7.5-2.7c58.9-49.2,92.7-121.5,92.7-198.2
		C598.4,115.8,482.6,0,340.3,0C275.1,0,212.9,24.4,165,68.7c-4.7,4.4-5,11.8-0.6,16.5C168.8,89.9,176.2,90.2,180.9,85.8z"/>
	<path fill="#1DB0E6" d="M340.3,71.9c102.7,0,186.2,83.5,186.2,186.2S443,444.3,340.3,444.3c-46.2,0-90.5-17-124.7-47.9
		c-4.8-4.3-12.2-3.9-16.5,0.8c-4.3,4.8-3.9,12.2,0.8,16.5c38.5,34.8,88.4,53.9,140.3,53.9c115.6,0,209.6-94,209.6-209.6
		s-94-209.6-209.6-209.6c-66.4,0-129.5,32-168.9,85.5c-3.8,5.2-2.7,12.5,2.5,16.3c5.2,3.8,12.5,2.7,16.3-2.5
		C225.2,100.3,281.4,71.9,340.3,71.9z"/>
	<path fill="#1DB0E6" d="M468.7,166.2L255.8,379.1c-4.6,4.6-4.6,11.9,0,16.5c2.3,2.3,5.3,3.4,8.3,3.4c3,0,6-1.1,8.3-3.4l212.9-212.9
		c4.6-4.6,4.6-11.9,0-16.5C480.6,161.6,473.2,161.6,468.7,166.2z"/>
	<path fill="#1DB0E6" d="M320.6,380.5c-4.6,4.6-4.6,11.9,0,16.5c2.3,2.3,5.3,3.4,8.3,3.4c3,0,6-1.1,8.3-3.4L497,237.2
		c4.6-4.6,4.6-11.9,0-16.5c-4.6-4.6-11.9-4.6-16.5,0L320.6,380.5z"/>
</g>
</svg>
