<?xml version="1.0" encoding="utf-8"?>
<!-- Generator: Adobe Illustrator 18.0.0, SVG Export Plug-In . SVG Version: 6.00 Build 0)  -->
<!DOCTYPE svg PUBLIC "-//W3C//DTD SVG 1.1//EN" "http://www.w3.org/Graphics/SVG/1.1/DTD/svg11.dtd">
<svg version="1.1" id="Capa_1" xmlns="http://www.w3.org/2000/svg" xmlns:xlink="http://www.w3.org/1999/xlink" x="0px" y="0px"
	 viewBox="0 0 612 612" enable-background="new 0 0 612 612" xml:space="preserve">
<g>
	<g>
		<path fill="#1DB0E6" d="M127.3,164.7c0-18.9-15.3-34.2-34.2-34.2c-8.3,0-16,2.9-22.2,8.1c-3.5-1.2-7.3-1.8-11.1-1.8
			c-18.9,0-34.2,15.3-34.2,34.2c0,14.6,9.4,27.4,22.7,32.2c4,14.5,17.4,25.1,33,25.1c18.9,0,34.2-15.3,34.2-34.2
			c0-1.2-0.1-2.3-0.2-3.5C122.8,184.2,127.3,174.8,127.3,164.7z M101.1,178.9l-6.3,3.5l2.1,6.9c0.5,1.5,0.7,3.2,0.7,4.8
			c0,9-7.3,16.3-16.3,16.3c-8.5,0-15.6-6.6-16.2-15.1l-0.5-7.2l-7.1-1.1c-7.9-1.2-13.9-8.1-13.9-16.1c0-9,7.3-16.3,16.3-16.3
			c3,0,5.9,0.8,8.4,2.4l6.9,4.2l4.9-6.4c3.1-4.1,7.8-6.4,13-6.4c9,0,16.3,7.3,16.3,16.3C109.4,170.5,106.2,176,101.1,178.9z"/>
	</g>
</g>
<g>
	<g>
		<path fill="#1DB0E6" d="M222.9,50c0-17.4-14.1-31.5-31.5-31.5c-7.4,0-14.4,2.5-20,7.1c-3.1-1-6.4-1.5-9.7-1.5
			c-17.4,0-31.5,14.1-31.5,31.5c0,1.1,0.1,2.1,0.2,3.2c-4.4,5.5-6.9,12.5-6.9,19.7c0,17.4,14.1,31.5,31.5,31.5
			c5.4,0,10.7-1.4,15.4-4c3.3,1.2,6.9,1.8,10.5,1.8c17.4,0,31.5-14.1,31.5-31.5c0-0.9,0-1.8-0.1-2.7C219,67.6,222.9,59.1,222.9,50z
			 M198.1,61.8l-6.3,3.5l2.1,6.9c0.4,1.3,0.6,2.6,0.6,4c0,7.5-6.1,13.5-13.5,13.5c-2.4,0-4.8-0.6-6.8-1.8l-5.5-3.2l-4.8,4.1
			c-2.5,2.1-5.5,3.2-8.7,3.2c-7.5,0-13.5-6.1-13.5-13.5c0-3.9,1.7-7.6,4.6-10.1l4.2-3.7l-1.5-5.4c-0.3-1.2-0.5-2.4-0.5-3.6
			c0-7.5,6.1-13.5,13.5-13.5c2.5,0,4.9,0.7,7,2l6.9,4.2l4.9-6.4c2.6-3.4,6.5-5.4,10.8-5.4c7.5,0,13.5,6.1,13.5,13.5
			C205,54.9,202.3,59.4,198.1,61.8z"/>
	</g>
</g>
<g>
	<g>
		<path fill="#1DB0E6" d="M586.3,116.3c0-17.4-14.1-31.5-31.5-31.5c-7.4,0-14.4,2.5-20,7.1c-3.1-1-6.4-1.5-9.7-1.5
			c-17.4,0-31.5,14.1-31.5,31.5c0,1.1,0.1,2.1,0.2,3.2c-4.4,5.5-6.9,12.5-6.9,19.7c0,17.4,14.1,31.5,31.5,31.5
			c5.4,0,10.7-1.4,15.4-4c3.3,1.2,6.9,1.8,10.5,1.8c17.4,0,31.5-14.1,31.5-31.5c0-0.9,0-1.8-0.1-2.7
			C582.3,134,586.3,125.4,586.3,116.3z M561.4,128.2l-6.3,3.5l2.1,6.9c0.4,1.3,0.6,2.6,0.6,4c0,7.5-6.1,13.5-13.5,13.5
			c-2.4,0-4.8-0.6-6.8-1.8l-5.5-3.2l-4.8,4.1c-2.5,2.1-5.5,3.2-8.7,3.2c-7.5,0-13.5-6.1-13.5-13.5c0-3.9,1.7-7.6,4.6-10.1l4.2-3.7
			l-1.5-5.4c-0.3-1.2-0.5-2.4-0.5-3.6c0-7.5,6.1-13.5,13.5-13.5c2.5,0,4.9,0.7,7,2l6.9,4.2l4.9-6.4c2.6-3.4,6.5-5.4,10.8-5.4
			c7.5,0,13.5,6.1,13.5,13.5C568.4,121.2,565.7,125.8,561.4,128.2z"/>
	</g>
</g>
<g>
	<g>
		<path fill="#1DB0E6" d="M490.9,38.9c-4.6-6.8-11.4-11.6-19.2-13.8c-1-3.6-2.6-7-4.7-10.2c-5.1-7.6-12.9-12.7-21.9-14.4
			c-9-1.7-18.1,0.2-25.6,5.3c-12,8.2-17.4,23.2-13.9,36.8c-9.8,11.5-11,28.5-2.3,41.4c5.1,7.6,12.9,12.7,21.9,14.4
			c2.2,0.4,4.3,0.6,6.5,0.6c6.8,0,13.4-2,19.1-5.9c1-0.7,1.9-1.4,2.8-2.1c9.5,2.6,19.9,1,28.2-4.7h0
			C497.4,75.8,501.5,54.5,490.9,38.9z M478.6,61.2c-0.8,4.3-3.2,8-6.8,10.4h0c-4.9,3.3-11.1,3.7-16.4,1.1l-6.5-3.2l-4.5,5.6
			c-1,1.3-2.2,2.4-3.6,3.3c-3.6,2.4-7.9,3.3-12.2,2.5c-4.3-0.8-8-3.2-10.4-6.8c-4.8-7-3.3-16.6,3.4-21.9l5.6-4.5l-3.1-6.5
			c-3.5-7.2-1.1-16,5.5-20.5c2.7-1.9,5.9-2.8,9.1-2.8c1,0,2.1,0.1,3.1,0.3c4.3,0.8,8,3.2,10.4,6.8c1.7,2.5,2.6,5.4,2.8,8.3l0.4,8.1
			l8.1,0.4c5.1,0.3,9.7,2.9,12.6,7.1C478.5,52.6,479.4,56.9,478.6,61.2z"/>
	</g>
</g>
<g>
	<g>
		<path fill="#1DB0E6" d="M493.1,251.9c0-4.8-1.1-9.6-3.2-13.9c2.1-4.3,3.2-9,3.2-13.9c0-15.2-10.9-28-25.3-30.9
			c1.7-3.9,2.5-8.1,2.5-12.4c0-17.4-14.1-31.5-31.5-31.5c-4.7,0-9.3,1.1-13.5,3.1c-7.6-7.3-17.8-11.4-28.5-11.4
			c-2.8,0-5.5,0.3-8.2,0.8c-2.4-2.4-5.2-4.4-8.3-5.9c6.2-6.3,9.9-14.9,9.9-24c0-18.9-15.3-34.2-34.2-34.2c-8.3,0-16,2.9-22.2,8.1
			c-3.5-1.2-7.3-1.8-11.1-1.8c-6.7,0-13.1,1.9-18.6,5.5c-11.4-10.8-29.2-12.6-42.7-3.4c-11.5,7.8-16.9,21.9-14.3,35.2
			c-13.4,2.5-23.8,13.5-25.5,27.1c-3.9-1.1-8.2-1.7-13.1-1.3c-7.4,0.6-14,3.1-19.1,7.1c-3.1-1-6.4-1.5-9.8-1.5
			c-17.4,0-31.5,14.1-31.5,31.5c0,1.1,0.1,2.1,0.2,3.2c-4.4,5.5-6.9,12.5-6.9,19.7c0,5.2,1.3,10.1,3.5,14.5
			c-17.9,1-32.2,15.9-32.2,34.1c0,8.5,3.2,16.6,8.7,22.8c-8.7,10.7-13,24.6-11.9,38.4L158.5,612h280.6l48.7-294.4l0.1-0.7
			c0.9-10.5-1.4-21.1-6.4-30.2c0.7-2.8,1.1-5.7,1.1-8.5c0-0.9,0-1.8-0.1-2.7C489.1,269.5,493.1,261,493.1,251.9z M173.8,594.1
			L173.8,594.1l-46.1-279c-0.7-10,2.6-19.6,9.4-27c6.9-7.5,16.3-11.6,26.5-11.6h0.4c19.4,0,35.2,15.2,36,34.6l0,0.2l0.1,1.1
			c0,0.7,0,1.5,0,2.2l22.2,279.5H173.8L173.8,594.1z M240.2,594.1l-22.3-282.3c0.2-9.1,3.7-17.6,10.1-24.2c6.8-7.1,16.1-11,25.9-11
			c19.8,0,36,16.1,36,36v281.6H240.2z M307.8,594.1L307.8,594.1V312.5c0-19.8,16.1-36,36-36c9.9,0,19.1,3.9,25.9,11
			c6.4,6.6,9.9,15.1,10.1,24.2l-22.3,282.3H307.8z M470,315.1l-46.1,279h-48.4l22.2-279.1l0-0.4c0-0.7,0-1.5,0-2.2l0.1-0.9l0-0.4
			c0.7-19.4,16.5-34.6,36-34.6h0.4c10.2,0,19.6,4.1,26.5,11.6C467.4,295.5,470.8,305.1,470,315.1z M468.2,263.7l-5.5,3.1
			c-8.5-5.3-18.4-8.2-28.6-8.2h-0.4c-18.8,0-35.4,9.5-45,24.1c-1.8-2.7-3.8-5.2-6.1-7.6c-10.3-10.7-24.1-16.5-38.9-16.5
			c-18.7,0-35.3,9.6-45,24.2c-9.7-14.6-26.2-24.2-45-24.2c-14.8,0-28.6,5.9-38.9,16.5c-2.3,2.4-4.3,4.9-6.1,7.6
			c-9.6-14.6-26.2-24.1-45-24.1h-0.4c-10.1,0-19.9,2.9-28.3,8.1c-2.7-3-4.3-6.9-4.3-11c0-9,7.3-16.3,16.3-16.3c3,0,5.9,0.8,8.4,2.4
			l6.9,4.2l4.9-6.4c1.1-1.4,2.4-2.7,3.9-3.7l15.3-10.4l-17.6-5.6c-5.6-1.8-9.4-7-9.4-12.9c0-3.9,1.7-7.6,4.6-10.1l4.2-3.7l-1.5-5.4
			c-0.3-1.2-0.5-2.4-0.5-3.6c0-7.5,6.1-13.5,13.5-13.5c2.5,0,4.9,0.7,7,2l6.9,4.2l4.9-6.5c3-3.9,7.9-5.1,11.6-5.4
			c8-0.7,13.8,4,17.2,6.9c1.1,0.9,2,1.6,3,2.2l7,4.2l4.8-6.5l4.4-5.8l-4.3-5.4c-1.9-2.4-2.9-5.3-2.9-8.3c0-7.4,6-13.5,13.4-13.5
			l5.1,0.3l2.9-3.8c0.8-1.1,1.8-2,2.8-2.8l5.6-4.5l-3.1-6.5c-3.5-7.2-1.1-16,5.5-20.5c7.4-5,17.6-3.1,22.6,4.3
			c0.3,0.4,0.6,0.9,0.9,1.5l6.4,12.3l8.6-10.8c3.1-3.9,7.8-6.2,12.8-6.2c3,0,5.9,0.8,8.4,2.4l6.9,4.2l4.9-6.4
			c3.1-4.1,7.8-6.4,13-6.4c9,0,16.3,7.3,16.3,16.3c0,5.9-3.2,11.3-8.3,14.2l-6.3,3.5l2.1,6.9c0.5,1.5,0.7,3.1,0.7,4.6
			c0,0.2,0,0.5,0,0.7v7.8l7.8,1c3.9,0.5,7.4,2.8,9.6,6.1l3.9,6.1l6.8-2.6c2.6-1,5.4-1.5,8.2-1.5c7.8,0,15,3.9,19.4,10.3l5.8,8.7
			l7.7-7.1c2.5-2.3,5.8-3.6,9.2-3.6c7.5,0,13.5,6.1,13.5,13.5c0,4.9-2.7,9.4-6.9,11.8l-6.3,3.6l2.2,6.9c0.2,0.7,0.4,1.4,0.5,2.3
			l1.5,13.3l11.7-6.5c2-1.1,4.2-1.7,6.5-1.7c7.5,0,13.5,6.1,13.5,13.5c0,3.1-1,6-2.9,8.4l-4.3,5.5l4.4,5.5c1.9,2.4,2.9,5.3,2.9,8.3
			C475.1,256.8,472.5,261.3,468.2,263.7z"/>
	</g>
</g>
<g>
	<g>
		<path fill="#1DB0E6" d="M329.3,170.3c-2.7,0-5.3,0.4-7.7,1.2c-6.2-6.8-15.1-10.7-24.5-10.7c-16,0-29.4,11.3-32.7,26.3
			c-17.7,0.9-31.8,15.5-31.8,33.4h17.9c0-8.6,7-15.5,15.5-15.5c1.4,0,2.8,0.2,4.3,0.6l12.9,3.7l-1.5-13.3c-0.1-0.7-0.1-1.2-0.1-1.8
			c0-8.6,7-15.5,15.5-15.5c5.8,0,11.1,3.2,13.8,8.4l5,9.5l8.5-6.5c1-0.8,2.8-1.7,5.1-1.7c4.6,0,8.4,3.8,8.4,8.4h17.9
			C355.6,182.1,343.8,170.3,329.3,170.3z"/>
	</g>
</g>
<g>
	<g>
		<path fill="#1DB0E6" d="M389.1,203.2c-8.8,0-17,3.8-22.8,10.1c-3.2-1.1-6.6-1.7-10-1.7c-16.8,0-30.5,13.7-30.5,30.5h17.9
			c0-6.9,5.6-12.6,12.6-12.6c2.7,0,5.3,0.9,7.5,2.5l8.8,6.6l4.7-9.9c2.2-4.6,6.8-7.6,11.9-7.6c7.2,0,13.1,5.9,13.1,13.1h17.9
			C420.1,217.1,406.2,203.2,389.1,203.2z"/>
	</g>
</g>
<g>
	<g>
		
			<rect x="151.2" y="311.8" transform="matrix(-0.9866 0.1632 -0.1632 -0.9866 374.8789 663.4168)" fill="#1DB0E6" width="17.9" height="70.5"/>
	</g>
</g>
<g>
	<g>
		
			<rect x="177.4" y="483.2" transform="matrix(-0.9866 0.1631 -0.1631 -0.9866 452.5832 973.3143)" fill="#1DB0E6" width="17.9" height="44"/>
	</g>
</g>
<g>
	<g>
		
			<rect x="324" y="520.8" transform="matrix(-7.919668e-002 0.9969 -0.9969 -7.919668e-002 890.2953 237.1246)" fill="#1DB0E6" width="23.3" height="17.9"/>
	</g>
</g>
<g>
	<g>
		
			<rect x="310.7" y="404.6" transform="matrix(-7.919668e-002 0.9969 -0.9969 -7.919668e-002 784.4073 102.5115)" fill="#1DB0E6" width="68.4" height="17.9"/>
	</g>
</g>
<g>
	<g>
		
			<rect x="331.4" y="323.2" transform="matrix(-7.919668e-002 0.9969 -0.9969 -7.919668e-002 710.269 8.2672)" fill="#1DB0E6" width="39.8" height="17.9"/>
	</g>
</g>
</svg>
