<?xml version="1.0" encoding="utf-8"?>
<!-- Generator: Adobe Illustrator 18.0.0, SVG Export Plug-In . SVG Version: 6.00 Build 0)  -->
<!DOCTYPE svg PUBLIC "-//W3C//DTD SVG 1.1//EN" "http://www.w3.org/Graphics/SVG/1.1/DTD/svg11.dtd">
<svg version="1.1" id="Capa_1" xmlns="http://www.w3.org/2000/svg" xmlns:xlink="http://www.w3.org/1999/xlink" x="0px" y="0px"
	 viewBox="0 0 512 512" enable-background="new 0 0 512 512" xml:space="preserve">
<g transform="matrix(-1 0 0 1 475.681 0)">
	<g>
		<g>
			<path fill="#1DB0E6" d="M446.6,146.3L446.6,146.3c-7.1,0.1-14.2,1.3-21,3.4c-3.7,1.2-6.1,4.7-5.9,8.6v22.5
				c-16.7,10.8-36.4,16.1-56.2,15.2c-5.8,0-10.3,0-13-0.6L294.1,142c-4.3-3.7-9.9-5.5-15.5-5.1c-30.6,0-100.4,34.4-137.3,56.1
				C97.6,218.8,9,233.8,8.1,233.9l-1.8,0.5c-44.9,18.6-46,55.6-40,73.4c12.4,63.6,152.7,67.3,184.6,67.3h307.6
				c4.8,0,8.6-3.9,8.6-8.6v-45.9c4.5-5.2,7.5-11.5,8.6-18.3c0-0.4,0-0.9,0-1.3V171.9C475.4,155.8,464.5,146.3,446.6,146.3z
				 M103.5,228.2l11.4,20.7c2.4,4.2,7.7,5.6,11.8,3.2c4.2-2.4,5.6-7.7,3.2-11.8l-10.1-18.3c7.3-2.8,14.3-5.9,20.8-9.1l14.4,22
				c2.5,4,7.9,5.2,11.9,2.7s5.2-7.9,2.7-11.9c-0.1-0.1-0.1-0.2-0.2-0.2l-13.6-20.8c6.2-3.5,12.6-7.1,19.2-10.5l17.2,25.1
				c2.5,4,7.8,5.3,11.9,2.8c4-2.5,5.3-7.8,2.8-11.9c-0.2-0.3-0.3-0.5-0.5-0.7l-16.2-23.2c7.7-3.8,15.4-7.5,22.9-10.8l20.1,29.3
				c2.6,4,8,5,11.9,2.4c4-2.6,5-8,2.4-11.9c0-0.1-0.1-0.1-0.1-0.2l-17.9-25.8c15.5-7.3,32-12.1,49-14.2c1.2-0.2,2.5-0.2,3.7,0
				l34.4,32.3c-34,45.6-81.4,79.4-135.5,96.8c-23.8-7.8-48.4-13.1-73.3-15.8c-22.1-1.6-43.2-10.1-60.3-24.3
				C64.7,239.9,84.3,234.7,103.5,228.2z M11.9,251c2.2,0,7.7-1.4,15.2-2.9c21.3,21.6,49.8,34.8,80.1,37
				c28.3,1.4,88.1,20.5,129.2,34.4h-37.7C42.7,320.1-4.1,307.8-18.1,299.2C-20.1,291.5-22.8,265.5,11.9,251z M449.8,357.8H155
				c-37.9,0.5-128.2-5.4-160.6-35c26.9,7.1,82.7,14.6,204.8,14.6c28.6,0,57.4,0,84.8-1c25.8-0.6,50.2-1.4,72-2.2
				c52.9-2,89.8-4.1,90.2-4.2c1.2,0.1,2.4,0.1,3.6,0V357.8z M458.4,300.3c-0.5,2.5-3.2,12.4-12.9,12.4c-0.6,0-32.2,1.9-78.6,3.8
				c16.6-59.1,69.3-78.6,91.5-84.2V300.3z M348.8,317.2c-19.5,0.7-41.1,1.4-63.6,1.9c-7.7-2.9-40.2-15-76.7-26.7
				c47.7-19.9,89.3-52.1,120.6-93.3l11.3,10.8c1.3,1.2,2.9,2,4.6,2.2c6,0.8,12.1,1.2,18.2,1.1c20.7,0,49.7-4,70.6-22.7
				c1.8-1.6,2.8-3.9,2.8-6.4v-19.7c3.2-0.6,6.4-1,9.6-1c11.8,0,12,5.2,12.1,8.6l0.2,42.5C435.6,220.1,366.6,242.3,348.8,317.2z"/>
		</g>
	</g>
</g>
</svg>
