<?xml version="1.0" encoding="iso-8859-1"?>
<!-- Generator: Adobe Illustrator 19.0.0, SVG Export Plug-In . SVG Version: 6.00 Build 0)  -->
<svg version="1.1" id="Capa_1" xmlns="http://www.w3.org/2000/svg" xmlns:xlink="http://www.w3.org/1999/xlink" x="0px" y="0px"
	 viewBox="0 0 496 496" style="enable-background:new 0 0 496 496;" xml:space="preserve">
<g>
	<g>
		<path style="fill:#FFD100;" d="M496,248c0,21.488-18.553,40.251-23.85,60.07c-5.481,20.506,1.043,46.002-9.345,63.956
			c-10.537,18.211-35.979,25.246-50.759,40.025c-14.779,14.779-21.813,40.22-40.023,50.756
			c-17.953,10.387-43.448,3.862-63.953,9.343C288.252,477.447,269.489,496,248,496c-21.488,0-40.251-18.553-60.07-23.85
			c-20.506-5.481-46.002,1.043-63.956-9.345c-18.211-10.537-25.246-35.979-40.025-50.759c-14.779-14.779-40.22-21.813-50.756-40.023
			c-10.387-17.953-3.862-43.448-9.343-63.953C18.553,288.252,0,269.489,0,248c0-21.488,18.553-40.251,23.85-60.07
			c5.481-20.506-1.043-46.002,9.345-63.956c10.537-18.211,35.979-25.246,50.759-40.025c14.779-14.779,21.813-40.22,40.023-50.756
			c17.953-10.387,43.448-3.862,63.953-9.343C207.748,18.553,226.511,0,248,0c21.488,0,40.251,18.553,60.07,23.85
			c20.506,5.481,46.002-1.043,63.956,9.345c18.211,10.537,25.246,35.979,40.025,50.759c14.779,14.779,40.22,21.813,50.756,40.023
			c10.387,17.953,3.862,43.448,9.343,63.953C477.447,207.748,496,226.511,496,248z"/>
	</g>
	<g>
		<path style="fill:#FF9500;" d="M83.951,83.951c-14.78,14.778-40.22,21.813-50.757,40.023c-10.388,17.954-3.863,43.45-9.344,63.956
			C18.553,207.749,0,226.511,0,248c0,21.488,18.553,40.251,23.85,60.07c5.481,20.505-1.044,46,9.343,63.953
			c10.536,18.21,35.978,25.244,50.756,40.023c14.779,14.78,21.814,40.222,40.025,50.759c17.954,10.388,43.45,3.864,63.956,9.345
			C207.749,477.447,226.512,496,248,496c21.489,0,40.252-18.553,60.07-23.85c20.505-5.481,46,1.044,63.953-9.343
			c18.21-10.536,25.244-35.978,40.023-50.756l0.002-0.002L83.951,83.951z"/>
	</g>
	<g>
		<circle style="fill:#FFFFFF;" cx="248" cy="248" r="176"/>
	</g>
	<g>
		<path style="fill:#FFD100;" d="M248,424c48.601,0,92.601-19.7,124.451-51.549L123.549,123.549C91.7,155.399,72,199.399,72,248
			C72,345.202,150.798,424,248,424z"/>
	</g>
	<g>
		<circle style="fill:#FF4F19;" cx="248" cy="248" r="152"/>
	</g>
	<g>
		<path style="fill:#E7001E;" d="M140.52,140.52C113.014,168.026,96,206.026,96,248c0,83.947,68.053,152,152,152
			c41.974,0,79.974-17.014,107.48-44.52L140.52,140.52z"/>
	</g>
	<g>
		<g>
			<path style="fill:#FFFFFF;" d="M176,332c-3.07,0-6.141-1.172-8.484-3.516c-4.688-4.684-4.688-12.285,0-16.969l144-144
				c4.688-4.688,12.281-4.688,16.969,0c4.688,4.684,4.688,12.285,0,16.969l-144,144C182.141,330.828,179.07,332,176,332z"/>
		</g>
	</g>
	<g>
		<g>
			<path style="fill:#FFFFFF;" d="M200,244c-24.258,0-44-19.738-44-44s19.742-44,44-44s44,19.738,44,44S224.258,244,200,244z
				 M200,180c-11.031,0-20,8.973-20,20s8.969,20,20,20s20-8.973,20-20S211.031,180,200,180z"/>
		</g>
	</g>
	<g>
		<g>
			<path style="fill:#FFFFFF;" d="M296,340c-24.258,0-44-19.738-44-44s19.742-44,44-44s44,19.738,44,44S320.258,340,296,340z
				 M296,276c-11.031,0-20,8.973-20,20s8.969,20,20,20s20-8.973,20-20S307.031,276,296,276z"/>
		</g>
	</g>
</g>
<g>
</g>
<g>
</g>
<g>
</g>
<g>
</g>
<g>
</g>
<g>
</g>
<g>
</g>
<g>
</g>
<g>
</g>
<g>
</g>
<g>
</g>
<g>
</g>
<g>
</g>
<g>
</g>
<g>
</g>
</svg>
