<?xml version="1.0" encoding="utf-8"?>
<!-- Generator: Adobe Illustrator 19.0.0, SVG Export Plug-In . SVG Version: 6.00 Build 0)  -->
<svg version="1.1" id="Layer_1" xmlns="http://www.w3.org/2000/svg" xmlns:xlink="http://www.w3.org/1999/xlink" x="0px" y="0px"
	 viewBox="-4 6 40 40" style="enable-background:new -4 6 40 40;" xml:space="preserve">
<style type="text/css">
	.st0{fill:#98CCFD;}
	.st1{fill:#4788C7;}
	.st2{fill:#DFF0FE;}
	.st3{fill:none;stroke:#4788C7;stroke-linecap:round;stroke-miterlimit:10;}
</style>
<path class="st0" d="M9.5,43.5c-1.2,0-2.2-1.2-2.2-2.6V11.1c0-1.4,1-2.6,2.2-2.6h13c1.2,0,2.2,1.2,2.2,2.6v29.7c0,1.4-1,2.6-2.2,2.6
	H9.5z"/>
<path class="st1" d="M22.5,9c1,0,1.8,1,1.8,2.1v29.7c0,1.2-0.8,2.1-1.8,2.1h-13c-1,0-1.8-1-1.8-2.1V11.1C7.7,10,8.5,9,9.5,9H22.5
	 M22.5,8h-13c-1.4,0-2.6,1.4-2.6,3.1v29.7c0,1.7,1.2,3.1,2.6,3.1h13c1.4,0,2.6-1.4,2.6-3.1V11.1C25.1,9.4,23.9,8,22.5,8z"/>
<path class="st2" d="M7.3,12.5h17.3v27H7.3V12.5z"/>
<path class="st1" d="M24.3,13v26H7.7V13H24.3 M25.1,12H6.9v28h18.2V12z"/>
<path class="st3" d="M14.8,41.5h2.5"/>
<circle class="st1" cx="16" cy="10.5" r="0.5"/>
</svg>
