<?xml version="1.0" encoding="utf-8"?>
<!-- Generator: Adobe Illustrator 19.0.0, SVG Export Plug-In . SVG Version: 6.00 Build 0)  -->
<svg version="1.1" id="Capa_1" xmlns="http://www.w3.org/2000/svg" xmlns:xlink="http://www.w3.org/1999/xlink" x="0px" y="0px"
	 viewBox="-167.1 543.4 60.2 54.6" style="enable-background:new -167.1 543.4 60.2 54.6;" xml:space="preserve">
<style type="text/css">
	.st0{fill:#2A55C5;}
	.st1{fill:#86D7FB;}
	.st2{fill:#31B6F3;}
	.st3{fill:#167CD8;}
	.st4{fill:#FFFFFF;}
</style>
<g>
	<path class="st0" d="M-121.1,563.5l-18.8-18.4c-2.3-2.3-6.1-2.3-8.5,0l-18.8,18.4v29.4h46V563.5z"/>
	<path class="st1" d="M-121.1,592.8l-19.2-14.9c-2.3-1.6-5.5-1.6-7.8,0c-6.6,4.5-19,14.9-19,14.9H-121.1z"/>
	<path class="st2" d="M-147.4,577.5h-0.1l-19.6-13.6v29c0,0,12.4-10.4,19-14.9C-147.9,577.8-147.6,577.6-147.4,577.5z"/>
	<path class="st3" d="M-140.7,577.5h-0.4c0.3,0.1,0.5,0.3,0.8,0.5l19.2,14.9v-29L-140.7,577.5z"/>
</g>
<circle class="st0" cx="-121.1" cy="583.8" r="14.2"/>
<g>
	<path class="st4" d="M-114.3,578h-3.4v-0.6c0-1-0.8-1.8-1.8-1.8h-3.2c-1,0-1.8,0.8-1.8,1.8v0.6h-3.4c-0.3,0-0.5,0.2-0.5,0.5
		s0.2,0.5,0.5,0.5h0.8v10.7c0,1.3,1.1,2.4,2.4,2.4h7.1c1.3,0,2.4-1.1,2.4-2.4v-10.7h0.8c0.3,0,0.5-0.2,0.5-0.5S-114,578-114.3,578
		L-114.3,578z M-123.6,577.4c0-0.5,0.4-0.9,0.9-0.9h3.2c0.5,0,0.9,0.4,0.9,0.9v0.6h-5V577.4z M-116,589.6c0,0.8-0.7,1.5-1.5,1.5
		h-7.1c-0.8,0-1.5-0.7-1.5-1.5v-10.7h10.2L-116,589.6L-116,589.6z M-116,589.6"/>
	<path class="st4" d="M-121.1,589.5c0.3,0,0.5-0.2,0.5-0.5v-8c0-0.3-0.2-0.5-0.5-0.5c-0.3,0-0.5,0.2-0.5,0.5v8
		C-121.5,589.2-121.3,589.5-121.1,589.5L-121.1,589.5z M-121.1,589.5"/>
	<path class="st4" d="M-124,589c0.3,0,0.5-0.2,0.5-0.5v-7c0-0.3-0.2-0.5-0.5-0.5s-0.5,0.2-0.5,0.5v7C-124.5,588.7-124.3,589-124,589
		L-124,589z M-124,589"/>
	<path class="st4" d="M-118.1,589c0.3,0,0.5-0.2,0.5-0.5v-7c0-0.3-0.2-0.5-0.5-0.5c-0.3,0-0.5,0.2-0.5,0.5v7
		C-118.6,588.7-118.4,589-118.1,589L-118.1,589z M-118.1,589"/>
</g>
</svg>
