<?xml version="1.0" encoding="utf-8"?>
<!-- Generator: Adobe Illustrator 18.0.0, SVG Export Plug-In . SVG Version: 6.00 Build 0)  -->
<!DOCTYPE svg PUBLIC "-//W3C//DTD SVG 1.1//EN" "http://www.w3.org/Graphics/SVG/1.1/DTD/svg11.dtd">
<svg version="1.1" id="Capa_1" xmlns="http://www.w3.org/2000/svg" xmlns:xlink="http://www.w3.org/1999/xlink" x="0px" y="0px"
	 viewBox="0 0 612 612" enable-background="new 0 0 612 612" xml:space="preserve">
<g>
	<g>
		<g>
			<path fill="#1DB0E6" d="M306,530.4c72.2,0,137.7-42.4,167.4-108.3c21.6-47.9,21.6-102.7,0-150.6
				c-41.6-92.5-150.2-133.8-242.7-92.2S96.9,329.6,138.4,422.1C168.1,488,233.7,530.4,306,530.4z M157.1,279.9
				c26.3-58.6,84.6-96.3,148.9-96.3c64.2,0,122.5,37.8,148.8,96.3c19.2,42.5,19.2,91.2,0,133.8c-37,82.2-133.6,118.9-215.8,81.9
				C156.9,458.7,120.2,362.1,157.1,279.9z"/>
			<path fill="#1DB0E6" d="M530.4,0H81.6C64.7,0,51,13.7,51,30.6v550.8c0,16.9,13.7,30.6,30.6,30.6h448.8
				c16.9,0,30.6-13.7,30.6-30.6V30.6C561,13.7,547.3,0,530.4,0z M540.6,581.4c0,5.6-4.6,10.2-10.2,10.2H81.6
				c-5.6,0-10.2-4.6-10.2-10.2v-10.2h469.2V581.4z M540.6,550.8H71.4v-408h469.2V550.8z M540.6,122.4H71.4V30.6
				c0-5.6,4.6-10.2,10.2-10.2h448.8c5.6,0,10.2,4.6,10.2,10.2V122.4z"/>
			<path fill="#1DB0E6" d="M306,489.6c4.6,0,9.2-0.3,13.7-0.7c13.8-1.3,27.2-4.6,40-9.8c1-0.4,2-0.8,3.1-1.2c1-0.4,2.2-1,3.4-1.6
				c1.8-0.8,3.5-1.6,5.3-2.5c70.1-36.2,97.7-122.3,61.5-192.4c-0.2-0.4-0.4-0.8-0.6-1.1c-16.4-31.1-43.7-55.1-76.7-67.3
				c-0.6-0.2-1.2-0.5-1.8-0.7c-11-3.9-22.5-6.4-34.1-7.5c-4.6-0.4-9.1-0.7-13.8-0.7c-78.9,0-142.8,63.9-142.8,142.8
				S227.1,489.6,306,489.6z M419.1,300.3L419.1,300.3c0.2,0.6,0.5,1.2,0.7,1.7c0.5,1.4,1,2.7,1.5,4.1c1,2.9,2,5.9,2.8,8.9
				c0.4,1.5,0.8,3.1,1.2,4.7c0.7,3.1,1.2,6.1,1.7,9.2c0.2,1.4,0.5,2.8,0.6,4.3c1.1,9.1,1.1,18.3,0,27.4c-0.2,1.4-0.4,2.8-0.6,4.2
				c-0.5,3.1-1,6.2-1.7,9.3c-0.4,1.6-0.7,3.1-1.2,4.6c-0.8,3.1-1.8,6-2.8,8.9c-0.5,1.4-0.9,2.7-1.4,4.1c-0.2,0.6-0.5,1.1-0.7,1.6
				c-25.6-22-28.6-60.6-6.6-86.2C414.5,304.6,416.8,302.4,419.1,300.3z M202.2,281.8c22.4-35.8,61.6-57.5,103.8-57.4
				c42.2-0.1,81.4,21.7,103.7,57.4c-35.9,27.1-42.9,78.2-15.8,114.1c4.5,6,9.8,11.3,15.8,15.8C373.8,469,298.3,486.4,241,450.5
				C183.7,414.7,166.3,339.1,202.2,281.8z"/>
			<path fill="#1DB0E6" d="M224.4,346.8c0.1-45,36.6-81.5,81.6-81.6c5.6,0,10.2-4.6,10.2-10.2c0-5.6-4.6-10.2-10.2-10.2
				c-56.3,0.1-101.9,45.7-102,102c0,5.6,4.6,10.2,10.2,10.2S224.4,352.4,224.4,346.8z"/>
			<path fill="#1DB0E6" d="M428.4,51h-40.8c-5.6,0-10.2,4.6-10.2,10.2s4.6,10.2,10.2,10.2h40.8c5.6,0,10.2-4.6,10.2-10.2
				S434,51,428.4,51z"/>
			<path fill="#1DB0E6" d="M428.4,81.6h-40.8c-5.6,0-10.2,4.6-10.2,10.2S382,102,387.6,102h40.8c5.6,0,10.2-4.6,10.2-10.2
				S434,81.6,428.4,81.6z"/>
			<path fill="#1DB0E6" d="M234.6,51h-40.8c-5.6,0-10.2,4.6-10.2,10.2s4.6,10.2,10.2,10.2h40.8c5.6,0,10.2-4.6,10.2-10.2
				S240.2,51,234.6,51z"/>
			<path fill="#1DB0E6" d="M234.6,81.6h-40.8c-5.6,0-10.2,4.6-10.2,10.2s4.6,10.2,10.2,10.2h40.8c5.6,0,10.2-4.6,10.2-10.2
				S240.2,81.6,234.6,81.6z"/>
			<path fill="#1DB0E6" d="M510,51h-40.8c-5.6,0-10.2,4.6-10.2,10.2s4.6,10.2,10.2,10.2H510c5.6,0,10.2-4.6,10.2-10.2
				S515.6,51,510,51z"/>
			<path fill="#1DB0E6" d="M510,81.6h-40.8c-5.6,0-10.2,4.6-10.2,10.2s4.6,10.2,10.2,10.2H510c5.6,0,10.2-4.6,10.2-10.2
				S515.6,81.6,510,81.6z"/>
			<path fill="#1DB0E6" d="M326.4,30.6c-22.5,0-40.8,18.3-40.8,40.8s18.3,40.8,40.8,40.8s40.8-18.3,40.8-40.8S348.9,30.6,326.4,30.6
				z M326.4,91.8c-11.3,0-20.4-9.1-20.4-20.4S315.1,51,326.4,51s20.4,9.1,20.4,20.4S337.7,91.8,326.4,91.8z"/>
			<path fill="#1DB0E6" d="M132.6,30.6c-22.5,0-40.8,18.3-40.8,40.8s18.3,40.8,40.8,40.8s40.8-18.3,40.8-40.8S155.1,30.6,132.6,30.6
				z M132.6,91.8c-11.3,0-20.4-9.1-20.4-20.4S121.3,51,132.6,51c11.3,0,20.4,9.1,20.4,20.4S143.9,91.8,132.6,91.8z"/>
		</g>
	</g>
</g>
</svg>
