<?xml version="1.0" encoding="utf-8"?>
<!-- Generator: Adobe Illustrator 18.0.0, SVG Export Plug-In . SVG Version: 6.00 Build 0)  -->
<!DOCTYPE svg PUBLIC "-//W3C//DTD SVG 1.1//EN" "http://www.w3.org/Graphics/SVG/1.1/DTD/svg11.dtd">
<svg version="1.1" id="Capa_1" xmlns="http://www.w3.org/2000/svg" xmlns:xlink="http://www.w3.org/1999/xlink" x="0px" y="0px"
	 viewBox="0 0 612 612" enable-background="new 0 0 612 612" xml:space="preserve">
<g>
	<g>
		<path fill="#58D3F9" d="M387.4,221.8c-2.2-2.2-5.3-3.5-8.4-3.5c-3.1,0-6.2,1.3-8.4,3.5c-2.2,2.2-3.5,5.3-3.5,8.4
			c0,3.1,1.3,6.2,3.5,8.4c2.2,2.2,5.3,3.5,8.4,3.5c3.2,0,6.2-1.3,8.4-3.5c2.2-2.2,3.5-5.3,3.5-8.4
			C390.9,227.1,389.7,224,387.4,221.8z"/>
	</g>
</g>
<g>
	<g>
		<path fill="#1DB0E6" d="M585.4,87c-5.7-3.3-13-1.3-16.3,4.4l-54.2,94.1c-4.9-0.6-9.9-0.6-14.7,0c0,0,0,0-0.1,0
			c-3.4,0.4-6.7,1.2-9.9,2.2l-6.3,2l-14.4,3.9c-7.3,0.7-15.2-1.1-22.1-5l-63.7-36.8c-8-4.6-10.8-15-6.2-23l11.8-20.4c0,0,0,0,0,0
			l52.3-90.4c3.3-5.7,1.4-13-4.4-16.3c-5.7-3.3-13-1.4-16.3,4.4L374.7,86l-5.4-3.1c-23.3-13.5-216.2-49.4-254.6-56.4
			c-0.1,0-0.2,0-0.2,0c-22.9-3.7-44.7,5.8-55.3,24.3L39.4,84.7c-13.7,23.7-4.3,54.9,20.8,71.1l-4.7,8.1c-4.1,7-5.1,15.2-3,23
			c2.1,7.8,7.1,14.4,14.1,18.4l2.5,1.4c4.7,2.7,9.9,4.1,15.1,4.1c2.6,0,5.3-0.3,7.9-1c7.8-2.1,14.4-7.1,18.4-14.1l4.7-8.1l28.2,16.3
			c-38,12.7-72.2,36.4-97.4,68c-6,7.5-11.5,15.5-16.4,23.8c-0.3,0.5-0.6,0.9-0.8,1.4c-14.3,24.6-23.6,52.1-27,80.4
			c-0.1,0.4-0.1,0.8-0.1,1.1c-0.9,7.9-1.4,15.9-1.4,24C0.1,457,20.9,506.6,55,543.8c0.6,0.8,1.3,1.5,2,2.2
			c22.2,23.6,49.7,42,80.7,53.3c0.5,0.2,1,0.4,1.5,0.5c22,7.9,45.6,12.1,70.3,12.1c27.5,0,53.7-5.3,77.7-15c0.6-0.2,1.2-0.4,1.8-0.7
			c29.5-12.2,55.7-30.9,76.6-54.4c0.7-0.6,1.4-1.4,1.9-2.2c31.9-36.8,51.3-84.7,51.3-137.1c0-7.7-0.5-15.5-1.3-23.1
			c0-0.2,0-0.3-0.1-0.5c-0.1-1-0.2-2-0.3-3c0-0.1,0-0.2,0-0.3l-1.4-8.7l3.2-5.6c6.5,2.3,13.2,3.4,19.7,3.4c18,0,34.9-8.5,43.9-24
			l19.7-34.1l46.2-80.1c6.5-11.3,2-26.2-10.1-33.2c-0.1-0.1-0.2-0.1-0.3-0.1l51.8-89.9C593.1,97.6,591.2,90.3,585.4,87z M299.9,88
			l10,37.4l-17.1-3l-10.3-38.3C288.6,85.4,294.4,86.7,299.9,88z M212.8,69.6l10.8,40.1l-17.1-3l-10.9-40.6
			C201.3,67.3,207,68.5,212.8,69.6z M89.8,183.8c-0.9,1.5-2.2,2.6-3.9,3c-1.7,0.4-3.4,0.2-4.9-0.6l-2.5-1.4c0,0,0,0,0,0
			c-1.5-0.9-2.6-2.2-3-3.9c-0.4-1.7-0.2-3.4,0.6-4.9l4.7-8.1l13.6,7.9L89.8,183.8z M146.2,228.2L119,275.4l-53.6,10.1
			C86.2,259.9,113.9,239.9,146.2,228.2z M186.4,270c10.5,0,20.7-5.4,26.3-15.2l4.7-8.1l27.6,16c9.5,5.5,20.5,7.4,30.8,5.3
			c4.6-0.9,9.8,0,14.3,2.6l33,19.1c11,6.4,19.5,16.4,23.3,27.6c0.9,2.8,2.8,5.1,5.3,6.5l11.4,6.6l-4.9,8.4
			c-8.4,14.5-3.4,33.1,11.1,41.4l0,0l2.5,1.4c3.7,2.1,7.6,3.4,11.6,3.8l-44.2,44.6L280.6,417l-6.3-19.3l-13.4-41.3l20.4-31
			c3.6-5.5,2.1-12.9-3.4-16.6c-5.5-3.6-12.9-2.1-16.6,3.4l-20,30.4h-63.7l-37-56.9l17.9-31.1c2.6,4,6.1,7.3,10.3,9.8l2.5,1.4
			C176.1,268.7,181.3,270,186.4,270z M178.4,235l4.7-8.1l8.3,4.8l5.3,3.1l-4.7,8.1c-1.8,3.1-5.7,4.1-8.8,2.4l-2.5-1.4c0,0,0,0,0,0
			c-1.5-0.9-2.6-2.2-3-3.9C177.3,238.2,177.6,236.5,178.4,235z M257.3,422.6l-23.8,17.3l-23.8,17.3L162,422.6l18.2-56h58.9
			L257.3,422.6z M46.7,313.3l74.2-13.9l37,57L138.2,417l-48.4,10.9l-10.5,2.3L26,375.3C29.2,353.2,36.3,332.3,46.7,313.3z
			 M56.1,506.8C36.7,478.4,25,444.3,24,407.6l39,40L56.1,506.8z M77.2,532.5l9.2-79.4l55.7-12.5l2.7-0.6l52.4,38.1v56.3l-56.6,40.6
			C116.6,565.2,95,550.7,77.2,532.5z M209.4,588.1c-13.8,0-27.2-1.5-40.1-4.4l40.6-29.1l45.3,27.7
			C240.6,586.1,225.2,588.1,209.4,588.1z M284.4,572.2l-62.9-38.5v-55.7l38.6-28l13.8-10l3.8,0.8l55.1,12.4l12.1,75.9
			C328,547.3,307.4,562,284.4,572.2z M365,503.4l-9-56l38.7-39C393.7,443.3,382.9,475.9,365,503.4z M392.8,358.7
			c-1.8,3.1-5.7,4.1-8.8,2.4l-2.5-1.4c-3.1-1.8-4.1-5.7-2.4-8.8l4.7-8.1l13.6,7.9L392.8,358.7z M420.5,335.9l-53-30.6
			c-6.2-15-17.6-27.7-32.4-36.3l-33-19.1c-9.6-5.5-20.6-7.4-30.9-5.4c-4.6,0.9-9.8,0-14.2-2.6l-38-21.9c0,0,0,0,0,0l-11.8-6.8
			L116.8,161c0,0,0,0,0,0l-34.3-19.8c0,0,0,0,0,0l-7.6-4.4c-14.8-8.5-21.5-25-15.9-37.9c5.1,9.7,13.1,18.4,23.6,24.5l182.1,105.2
			c9.5,5.5,20.5,7.4,30.8,5.3c4.6-0.9,9.8,0,14.3,2.6l33,19.1c11,6.4,19.5,16.4,23.3,27.6c0.9,2.8,2.8,5.1,5.3,6.5l56.7,32.7
			c9.4,5.4,19.8,8.2,30.1,8.2c0.7,0,1.5,0,2.2-0.1C452.5,341.9,435.1,344.3,420.5,335.9z M481.4,294.7c-3.4,5.9-9.4,10-16.9,11.5
			c-8,1.6-16.7,0-24.4-4.4l-53-30.6c-6.2-15-17.6-27.7-32.3-36.3l-33.1-19.1c-9.6-5.5-20.6-7.4-30.9-5.4c-4.6,0.9-9.8,0-14.2-2.6
			L94.5,102.8c-15.7-9.1-22.3-27.1-14.7-40.1c5.6-9.8,17.7-14.7,30.7-12.6c17.8,3.3,38,7.1,59,11.1l15.9,59.2
			c1.2,4.5,4.9,7.9,9.5,8.7l43.1,7.5c0.7,0.1,1.4,0.2,2,0.2c3.3,0,6.5-1.4,8.8-3.9c2.8-3,3.8-7.2,2.7-11.2l-12.5-46.7
			c5.9,1.2,11.7,2.4,17.4,3.6l15.4,57.4c1.2,4.5,4.9,7.9,9.5,8.7l43.1,7.5c0.7,0.1,1.4,0.2,2,0.2c3.3,0,6.5-1.4,8.8-3.9
			c2.8-3,3.8-7.2,2.7-11.2l-11.5-43.1c16.1,4,27.3,7.3,31,9.4l5.4,3.1l-5.8,10.1c-11.2,19.5-4.5,44.4,14.9,55.7l56,32.3l-17.1,4.6
			c-6.4,1.7-10.2,8.3-8.5,14.6c1.4,5.3,6.3,8.9,11.5,8.9c1,0,2.1-0.1,3.1-0.4l57.1-15.3c3.3-0.4,6.6-1.2,9.8-2.2l7-2.3l13.4-3.6
			c7.4-0.7,15.3,1,22.2,5c0.6,0.4,0.9,0.8,1.1,1L481.4,294.7z"/>
	</g>
</g>
<g>
	<g>
		<path fill="#58D3F9" d="M608.4,53.3c-2.2-2.2-5.3-3.5-8.4-3.5s-6.2,1.3-8.4,3.5c-2.2,2.2-3.5,5.3-3.5,8.4c0,3.2,1.3,6.2,3.5,8.4
			c2.2,2.2,5.3,3.5,8.4,3.5c3.1,0,6.2-1.3,8.4-3.5c2.2-2.2,3.5-5.3,3.5-8.4C611.9,58.6,610.7,55.5,608.4,53.3z"/>
	</g>
</g>
</svg>
