<?xml version="1.0" encoding="utf-8"?>
<!-- Generator: Adobe Illustrator 18.0.0, SVG Export Plug-In . SVG Version: 6.00 Build 0)  -->
<!DOCTYPE svg PUBLIC "-//W3C//DTD SVG 1.1//EN" "http://www.w3.org/Graphics/SVG/1.1/DTD/svg11.dtd">
<svg version="1.1" id="Layer_1" xmlns="http://www.w3.org/2000/svg" xmlns:xlink="http://www.w3.org/1999/xlink" x="0px" y="0px"
	 viewBox="0 0 612 612" enable-background="new 0 0 612 612" xml:space="preserve">
<g id="surface1">
	<path fill="#1DB0E6" d="M289.5,256.7l-11,10.7h-16.5c-6.1,0-11,4.9-11,11v65.8c0,6.1,4.9,11,11,11h87.8c6.1,0,11-4.9,11-11v-65.8
		c0-6.1-4.9-11-11-11h-16.2l-11-11h-33V256.7z M306,284c15.3,0,27.5,11.9,27.5,27.5c0,15.6-11.9,27.5-27.5,27.5
		s-27.5-11.9-27.5-27.5C278.5,295.9,290.7,284,306,284z M306,292.2c-10.7,0-19.3,8.6-19.3,19.3c0,10.7,8.6,19.3,19.3,19.3
		s19.3-8.6,19.3-19.3C325.3,300.8,316.7,292.2,306,292.2z"/>
</g>
</svg>
