<?xml version="1.0" encoding="utf-8"?>
<!-- Generator: Adobe Illustrator 18.0.0, SVG Export Plug-In . SVG Version: 6.00 Build 0)  -->
<!DOCTYPE svg PUBLIC "-//W3C//DTD SVG 1.1//EN" "http://www.w3.org/Graphics/SVG/1.1/DTD/svg11.dtd">
<svg version="1.1" id="Capa_1" xmlns="http://www.w3.org/2000/svg" xmlns:xlink="http://www.w3.org/1999/xlink" x="0px" y="0px"
	 viewBox="0 0 612 612" enable-background="new 0 0 612 612" xml:space="preserve">
<g>
	<g>
		<path fill="#1DB0E6" d="M611.7,383c-1.5-35.1-7.6-73.9-16.8-110.5c-9.1-35.1-20.6-67.8-34.3-93c-53.4-93.8-111.3-79.3-180.7-61
			c-22.1,5.3-45.7,11.4-70.1,13.7h-7.6c-24.4-2.3-48-8.4-70.1-13.7C162.7,101,104.8,85.7,51.4,180.2c-13.7,25.2-25.9,57.9-34.3,93
			C8,309.8,1.9,348.7,0.3,383.8c-1.5,38.9,2.3,67.1,10.7,86.9c8.4,18.3,20.6,29.7,36.6,34.3c14.5,3.8,31.3,2.3,48.8-5.3
			c29.7-12.2,64-38.1,97.6-69.4C217.6,407.4,261.8,396,306,396s88.4,11.4,112.1,34.3c33.5,31.3,67.8,57.2,97.6,69.4
			c17.5,6.9,34.3,9.1,48.8,5.3c15.2-4.6,28.2-15.2,36.6-35.1C609.4,450.8,613.2,422.6,611.7,383z M575.1,459.2
			c-4.6,10.7-10.7,16.8-18.3,19.1c-8.4,2.3-19.1,0.8-31.3-3.8c-26.7-10.7-57.9-34.3-88.4-63.3c-29-29-80-43.4-131.1-43.4
			s-102.1,14.5-131.9,41.9c-31.3,29-62.5,53.4-88.4,63.3c-12.2,4.6-22.9,6.9-31.3,3.8c-7.6-2.3-13.7-8.4-18.3-19.1
			c-6.1-14.5-9.1-38.1-7.6-73.2c1.5-32.8,6.9-70.1,16-105.2c8.4-32.8,19.1-63.3,32-86.1c41.9-75.5,90.7-63.3,148.6-48
			c23.6,6.1,48,12.2,74.7,14.5c0.8,0,0.8,0,1.5,0h8.4c0.8,0,0.8,0,1.5,0c27.4-2.3,51.8-8.4,75.5-14.5c57.9-14.5,106.7-27.4,148.6,48
			c13,22.9,23.6,52.6,32,86.1c8.4,35.1,14.5,71.7,16,105.2C585,419.6,581.9,443.2,575.1,459.2z"/>
	</g>
</g>
<g>
	<g>
		<path fill="#1DB0E6" d="M235.9,234.4c-7.6-6.9-16.8-12.2-27.4-13c-0.8-9.9-5.3-19.8-12.2-26.7l-0.8-0.8c-8.4-8.4-19.1-13-31.3-13
			s-23.6,5.3-31.3,13c-6.9,6.9-12.2,16.8-13,27.4c-10.7,0.8-19.8,5.3-27.4,12.2l-0.8,0.8c-8.4,8.4-13,19.1-13,31.3s5.3,23.6,13,31.3
			c7.6,7.6,16.8,12.2,28.2,13c0.8,10.7,5.3,20.6,13,27.4c8.4,8.4,19.1,13,31.3,13s23.6-5.3,31.3-13c6.9-7.6,12.2-16.8,13-27.4
			c10.7-0.8,20.6-5.3,27.4-13c8.4-8.4,13-19.1,13-31.3S243.5,242,235.9,234.4z M216.8,277c-3,3-6.9,4.6-11.4,4.6h-10.7
			c-7.6,0-14.5,6.1-14.5,14.5v9.9c0,4.6-1.5,8.4-4.6,11.4s-6.9,4.6-11.4,4.6s-8.4-1.5-11.4-4.6c-3-3-4.6-6.9-4.6-11.4v-10.7
			c0-7.6-6.1-14.5-14.5-14.5h-10.7c-4.6,0-8.4-1.5-11.4-4.6c-2.3-2.3-4.6-6.1-4.6-10.7c0-4.6,1.5-8.4,4.6-11.4c0,0,0,0,0.8-0.8
			c3-2.3,6.9-3.8,10.7-3.8h10.7c7.6,0,14.5-6.1,14.5-14.5v-10.7c0-4.6,1.5-8.4,4.6-11.4s6.9-4.6,11.4-4.6s8.4,1.5,11.4,4.6
			c0,0,0,0,0.8,0.8c2.3,3,3.8,6.9,3.8,10.7v10.7c0,7.6,6.1,14.5,14.5,14.5h10.7c4.6,0,8.4,1.5,11.4,4.6c3,3,4.6,6.9,4.6,11.4
			C221.4,270.2,219.9,274,216.8,277z"/>
	</g>
</g>
<g>
	<g>
		<circle fill="#1DB0E6" cx="438.6" cy="211.5" r="26.7"/>
	</g>
</g>
<g>
	<g>
		<circle fill="#1DB0E6" cx="438.6" cy="319.7" r="26.7"/>
	</g>
</g>
<g>
	<g>
		<circle fill="#1DB0E6" cx="384.5" cy="265.6" r="26.7"/>
	</g>
</g>
<g>
	<g>
		<circle fill="#1DB0E6" cx="492.8" cy="265.6" r="26.7"/>
	</g>
</g>
</svg>
