<svg height="512pt" viewBox="0 -2 512.00056 512" width="512pt" xmlns="http://www.w3.org/2000/svg"><path d="m449.386719 48.835938-22.933594-22.933594c-5.925781-5.925782-5.925781-15.53125 0-21.457032 5.921875-5.925781 15.53125-5.925781 21.457031 0l22.933594 22.933594c5.925781 5.925782 5.925781 15.53125 0 21.457032-5.925781 5.925781-15.53125 5.925781-21.457031 0zm0 0" fill="#e3e3e3"/><path d="m406.46875 91.753906-37.550781-37.554687c-5.921875-5.921875-5.921875-15.53125 0-21.457031 5.925781-5.925782 15.535156-5.925782 21.460937 0l37.550782 37.550781c5.925781 5.925781 5.925781 15.53125 0 21.460937-5.925782 5.925782-15.53125 5.925782-21.460938 0zm0 0" fill="#e3e3e3"/><path d="m286.164062 392.027344c.789063-10.308594 6.515626-19.578125 15.472657-24.746094 7.035156-4.058594 13.617187-9.0625 19.574219-15.023438l.082031-.078124c3.164062-3.167969 1.785156-8.601563-2.523438-9.8125-35.335937-9.929688-69.824219-43.484376-88.089843-90.464844-11.382813-29.289063-14.59375-58.988282-10.707032-84.761719.589844-3.917969-2.738281-7.261719-6.667968-6.761719-21.136719 2.695313-41.007813 11.757813-56.609376 27.363282-5.960937 5.957031-10.964843 12.539062-15.023437 19.574218-5.167969 8.957032-14.4375 14.679688-24.746094 15.472656-29.964843 2.296876-58.390625 14.269532-80.316406 36.191407-52.832031 52.835937-47.898437 143.425781 11.019531 202.34375 58.917969 58.917969 149.507813 63.851562 202.339844 11.019531 21.925781-21.925781 33.898438-50.351562 36.195312-80.316406zm0 0" fill="#fb695b"/><g fill="#454545"><path d="m150.3125 358.640625c-6.921875-6.917969-6.921875-18.136719 0-25.054687l7.230469-7.234376c1.195312-1.195312 3.132812-1.195312 4.328125 0l20.726562 20.726563c1.195313 1.195313 1.195313 3.136719 0 4.332031l-7.230468 7.230469c-6.917969 6.921875-18.136719 6.921875-25.054688 0zm0 0"/><path d="m218.03125 391.210938c-1.917969 0-3.839844-.734376-5.304688-2.199219-2.929687-2.929688-2.929687-7.675781.003907-10.605469l8.269531-8.273438c2.929688-2.929687 7.679688-2.929687 10.605469 0 2.929687 2.929688 2.929687 7.679688 0 10.605469l-8.273438 8.273438c-1.460937 1.464843-3.382812 2.199219-5.300781 2.199219zm0 0"/><path d="m125.242188 298.421875c-1.917969 0-3.835938-.734375-5.300782-2.199219-2.929687-2.929687-2.929687-7.675781 0-10.605468l8.269532-8.269532c2.929687-2.929687 7.675781-2.929687 10.605468 0 2.929688 2.925782 2.929688 7.675782 0 10.605469l-8.269531 8.269531c-1.464844 1.464844-3.382813 2.199219-5.304687 2.199219zm0 0"/></g><path d="m206.53125 410.980469c-1.917969 0-3.839844-.730469-5.300781-2.195313l-8.273438-8.273437c-2.929687-2.929688-2.929687-7.675781 0-10.605469 2.929688-2.929688 7.675781-2.929688 10.605469 0l8.269531 8.273438c2.929688 2.925781 2.929688 7.675781.003907 10.605468-1.464844 1.464844-3.386719 2.195313-5.304688 2.195313zm0 0" fill="#f4f4f4"/><path d="m113.742188 318.191406c-1.917969 0-3.839844-.730468-5.300782-2.195312l-8.273437-8.273438c-2.929688-2.925781-2.929688-7.675781 0-10.605468 2.929687-2.929688 7.675781-2.929688 10.605469 0l8.269531 8.273437c2.929687 2.929687 2.929687 7.675781.003906 10.605469-1.464844 1.464844-3.386719 2.195312-5.304687 2.195312zm0 0" fill="#f4f4f4"/><path d="m58.535156 280.90625c21.921875-21.921875 50.347656-33.894531 80.3125-36.191406 10.308594-.792969 19.578125-6.519532 24.746094-15.472656 4.0625-7.039063 9.066406-13.621094 15.023438-19.578126 11.386718-11.386718 25.054687-19.273437 39.820312-23.761718.117188-6.429688.621094-12.707032 1.535156-18.761719.589844-3.917969-2.738281-7.265625-6.667968-6.761719-21.136719 2.695313-41.007813 11.757813-56.609376 27.359375-5.960937 5.960938-10.964843 12.542969-15.023437 19.578125-5.167969 8.953125-14.4375 14.679688-24.746094 15.472656-29.964843 2.296876-58.390625 14.269532-80.316406 36.191407-52.832031 52.832031-47.898437 143.425781 11.019531 202.34375 3.699219 3.699219 7.527344 7.1875 11.460938 10.460937-48.847656-58.6875-50.070313-141.363281-.554688-190.878906zm0 0" fill="#f85647"/><path d="m432.632812 108.695312-32.375-32.375-217.21875 196.265626c-4.632812 4.1875-7.167968 10.242187-6.785156 16.476562.550782 8.871094 3.164063 21.578125 12.609375 31.023438 9.449219 9.449218 22.152344 12.0625 31.027344 12.609374 6.230469.386719 12.289063-2.148437 16.472656-6.78125zm0 0" fill="#f4f4f4"/><path d="m198.179688 310.984375c-.382813-6.230469 2.152343-12.285156 6.785156-16.472656l217.21875-196.265625-21.925782-21.925782-217.21875 196.265626c-4.632812 4.1875-7.167968 10.242187-6.78125 16.476562.546876 8.871094 3.160157 21.578125 12.609376 31.023438 4.003906 4.007812 8.597656 6.773437 13.238281 8.6875-2.597657-6.296876-3.609375-12.675782-3.925781-17.789063zm0 0" fill="#e3e3e3"/><path d="m124.460938 456.429688-71.941407-71.941407c-4.964843-4.964843-4.964843-13.019531 0-17.984375 4.96875-4.96875 13.019531-4.96875 17.984375 0l71.945313 71.941406c4.964843 4.96875 4.964843 13.019532 0 17.984376-4.96875 4.96875-13.019531 4.96875-17.988281 0zm0 0" fill="#f4f4f4"/><path d="m81.132812 395.113281c4.964844-4.964843 13.019532-4.964843 17.984376 0l-28.613282-28.609375c-4.964844-4.96875-13.015625-4.96875-17.984375 0-4.964843 4.964844-4.964843 13.019532 0 17.984375l28.613281 28.613281c-4.96875-4.96875-4.96875-13.019531 0-17.988281zm0 0" fill="#e3e3e3"/><path d="m422.640625 129.246094-48.054687-48.054688c-4.761719-4.761718-3.769532-12.734375 2.011718-16.183594l89.832032-53.597656c4.066406-2.425781 9.257812-1.777344 12.605468 1.566406l29.9375 29.941407c4.035156 4.035156 4.035156 10.578125 0 14.613281l-71.714844 71.714844c-4.035156 4.039062-10.578124 4.039062-14.617187 0zm0 0" fill="#fb695b"/><path d="m398.523438 86.933594 89.832031-53.597656c4.0625-2.425782 9.257812-1.777344 12.605469 1.566406l-21.925782-21.921875c-3.347656-3.347657-8.539062-3.992188-12.605468-1.566407l-89.832032 53.59375c-5.78125 3.449219-6.773437 11.421876-2.011718 16.183594l21.925781 21.925782c-4.761719-4.761719-3.769531-12.734376 2.011719-16.183594zm0 0" fill="#f85647"/><path d="m213.742188 437.550781c-6.054688-6.054687-15.871094-6.054687-21.921876 0-6.054687 6.054688-6.054687 15.867188 0 21.921875 6.050782 6.054688 15.867188 6.054688 21.921876 0 6.054687-6.054687 6.054687-15.867187 0-21.921875zm0 0" fill="#f8ea69"/><path d="m202.785156 448.511719c4.054688-4.054688 9.796875-5.378907 14.964844-4-.679688-2.550781-2.003906-4.960938-4.003906-6.960938-6.050782-6.054687-15.867188-6.054687-21.921875 0-6.054688 6.054688-6.054688 15.871094 0 21.921875 2 2 4.410156 3.324219 6.960937 4.003906-1.378906-5.167968-.054687-10.90625 4-14.964843zm0 0" fill="#f4e74d"/></svg>