<svg height="682pt" viewBox="-21 -51 682.66669 682" width="682pt" xmlns="http://www.w3.org/2000/svg"><path d="m640 502.25v75h-290.375l-29.625-30.375-319.878906-327 56.628906-48.75 263.25 149.625zm0 0" fill="#f2f6fc"/><path d="m640 502.25v75h-290.375l-29.625-30.375v-226.125zm0 0" fill="#dce1eb"/><path d="m640 446v56.25h-258.875l-61.125-62.246094-263.25-268.878906 28.5-24.75 171.75-148.125 14.625 71.996094c8.625 43.503906 22.125 68.628906 48.375 81.753906 18 9.375 42 12.75 75 12.75h12.75l22.875 57-50.25 37.878906 64.125-3.378906 10.875 27.753906-49.871094 37.871094 63.746094-3 13.5 33.375h63.5c51.75 0 93.75 42 93.75 93.75zm0 0" fill="#ff641a"/><path d="m640 446v56.25h-258.875l-61.125-62.246094v-288.003906c18 9.375 42 12.75 75 12.75h12.75l22.875 57-50.25 37.878906 64.125-3.378906 10.875 27.753906-49.871094 37.871094 63.746094-3 13.5 33.375h63.5c51.75 0 93.75 42 93.75 93.75zm0 0" fill="#f03800"/><g fill="#dce1eb"><path d="m0 427.25h151.25v37.5h-151.25zm0 0"/><path d="m37.5 539.75h151.25v37.5h-151.25zm0 0"/><path d="m367.921875 359.558594 101.511719-40.609375-13.929688-34.820313-101.5 40.601563zm0 0"/><path d="m342.890625 297.011719 101.519531-40.613281-13.925781-34.824219-101.507813 40.605469zm0 0"/></g></svg>