<?xml version="1.0" encoding="utf-8"?>
<!-- Generator: Adobe Illustrator 18.0.0, SVG Export Plug-In . SVG Version: 6.00 Build 0)  -->
<!DOCTYPE svg PUBLIC "-//W3C//DTD SVG 1.1//EN" "http://www.w3.org/Graphics/SVG/1.1/DTD/svg11.dtd">
<svg version="1.1" id="Capa_1" xmlns="http://www.w3.org/2000/svg" xmlns:xlink="http://www.w3.org/1999/xlink" x="0px" y="0px"
	 viewBox="0 0 612 612" enable-background="new 0 0 612 612" xml:space="preserve">
<g>
	<g>
		<path fill="#1DB0E6" d="M393.4,106.9H179.7c-37.5,0-68,30.5-68,68.1v262.1c0,37.5,30.5,68.1,68,68.1h213.7c37.5,0,68-30.5,68-68.1
			V174.9C461.4,137.4,430.9,106.9,393.4,106.9z M442,437.1c0,26.8-21.8,48.6-48.6,48.6H179.7c-26.8,0-48.6-21.8-48.6-48.6V174.9
			c0-26.8,21.8-48.6,48.6-48.6h213.7c26.8,0,48.6,21.8,48.6,48.6V437.1z"/>
	</g>
</g>
<g>
	<g>
		<path fill="#1DB0E6" d="M412.7,114.8l-14.2-78.2C394.7,16.1,375.5,0,354.6,0H218.5c-20.9,0-40.1,16.1-43.9,36.6l-14.2,78.2
			c-0.5,2.8,0.3,5.7,2.1,8s4.6,3.5,7.5,3.5h233.1c2.9,0,5.6-1.3,7.5-3.5C412.4,120.6,413.2,117.7,412.7,114.8z M181.6,106.9
			l12.1-66.8c2-11.2,13.4-20.7,24.7-20.7h136.1c11.4,0,22.7,9.5,24.7,20.7l12.1,66.8H181.6z"/>
	</g>
</g>
<g>
	<g>
		<path fill="#1DB0E6" d="M410.6,489.2c-1.8-2.2-4.6-3.5-7.5-3.5H170c-2.9,0-5.6,1.3-7.5,3.5c-1.8,2.2-2.6,5.1-2.1,8l14.2,78.2
			c3.7,20.5,23,36.6,43.9,36.6h136.1c20.9,0,40.1-16.1,43.9-36.6l14.2-78.2C413.2,494.3,412.4,491.4,410.6,489.2z M379.4,571.9
			c-2,11.2-13.4,20.7-24.7,20.7H218.5c-11.4,0-22.7-9.5-24.7-20.7l-12.1-66.8h209.9L379.4,571.9z"/>
	</g>
</g>
<g>
	<g>
		<path fill="#1DB0E6" d="M472.6,204h-20.9c-5.4,0-9.7,4.3-9.7,9.7v87.4c0,5.4,4.4,9.7,9.7,9.7h20.9c15.3,0,27.7-12.4,27.7-27.7
			v-51.5C500.3,216.4,487.9,204,472.6,204z M480.9,283.2c0,4.6-3.7,8.3-8.3,8.3h-11.2v-68h11.2c4.6,0,8.3,3.7,8.3,8.3V283.2z"/>
	</g>
</g>
<g>
	<g>
		<path fill="#1DB0E6" d="M186.6,148.6c-3.8-3.8-9.9-3.8-13.7,0l-24.3,24.3c-3.8,3.8-3.8,9.9,0,13.7c1.9,1.9,4.4,2.8,6.9,2.8
			c2.5,0,5-0.9,6.9-2.8l24.3-24.3C190.4,158.5,190.4,152.4,186.6,148.6z"/>
	</g>
</g>
<g>
	<g>
		<path fill="#1DB0E6" d="M225.4,148.6c-3.8-3.8-9.9-3.8-13.7,0L158.3,202c-3.8,3.8-3.8,9.9,0,13.7c1.9,1.9,4.4,2.8,6.9,2.8
			c2.5,0,5-0.9,6.9-2.8l53.4-53.4C229.2,158.5,229.2,152.4,225.4,148.6z"/>
	</g>
</g>
</svg>
