<?xml version="1.0" encoding="utf-8"?>
<!-- Generator: Adobe Illustrator 19.0.0, SVG Export Plug-In . SVG Version: 6.00 Build 0)  -->
<svg version="1.1" id="Capa_1" xmlns="http://www.w3.org/2000/svg" xmlns:xlink="http://www.w3.org/1999/xlink" x="0px" y="0px"
	 viewBox="-167.1 543.4 60.2 54.6" style="enable-background:new -167.1 543.4 60.2 54.6;" xml:space="preserve">
<style type="text/css">
	.st0{fill:#2A55C5;}
	.st1{fill:#86D7FB;}
	.st2{fill:#31B6F3;}
	.st3{fill:#167CD8;}
	.st4{fill:#FFFFFF;}
</style>
<g>
	<g>
		<path class="st0" d="M-121.1,563.5l-18.8-18.4c-2.3-2.3-6.1-2.3-8.5,0l-18.8,18.4v29.4h46V563.5z"/>
		<path class="st1" d="M-121.1,592.8l-19.2-14.9c-2.3-1.6-5.5-1.6-7.8,0c-6.6,4.5-19,14.9-19,14.9H-121.1z"/>
		<path class="st2" d="M-147.4,577.5h-0.1l-19.6-13.6v29c0,0,12.4-10.4,19-14.9C-147.9,577.8-147.6,577.6-147.4,577.5z"/>
		<path class="st3" d="M-140.7,577.5h-0.4c0.3,0.1,0.5,0.3,0.8,0.5l19.2,14.9v-29L-140.7,577.5z"/>
	</g>
	<circle class="st0" cx="-121.1" cy="583.8" r="14.2"/>
	<g>
		<path class="st4" d="M-118,590c-1.1,0.6-2.2,0.8-3.6,0.8c-3.3,0-6.1-2.4-6.1-6.3c0-4.1,2.9-7.7,7.3-7.7c3.5,0,5.8,2.4,5.8,5.8
			c0,3-1.7,4.8-3.6,4.8c-0.8,0-1.5-0.5-1.5-1.8h-0.1c-0.7,1.2-1.6,1.8-2.8,1.8c-1.2,0-2.2-0.9-2.2-2.5c0-2.5,2-4.7,4.7-4.7
			c0.9,0,1.6,0.2,2.1,0.4l-0.7,3.6c-0.3,1.5-0.1,2.2,0.6,2.2c1,0,2.2-1.3,2.2-3.7c0-2.9-1.7-5-4.8-5c-3.3,0-6,2.6-6,6.7
			c0,3.3,2.2,5.4,5.1,5.4c1.1,0,2.2-0.2,3-0.7L-118,590z M-119.1,581.3c-0.2-0.1-0.5-0.1-1-0.1c-1.8,0-3.2,1.7-3.2,3.6
			c0,0.9,0.4,1.5,1.3,1.5c1.2,0,2.2-1.5,2.4-2.7L-119.1,581.3z"/>
	</g>
</g>
</svg>
