<?xml version="1.0" encoding="utf-8"?>
<!-- Generator: Adobe Illustrator 18.1.1, SVG Export Plug-In . SVG Version: 6.00 Build 0)  -->
<svg version="1.1" id="Layer_1" xmlns="http://www.w3.org/2000/svg" xmlns:xlink="http://www.w3.org/1999/xlink" x="0px" y="0px"
	 viewBox="0 0 200 200" enable-background="new 0 0 200 200" xml:space="preserve">
<g id="surface1">
	<path fill="#ff217c" d="M94.6,83.9L91,87.4h-5.4c-2,0-3.6,1.6-3.6,3.6v21.5c0,2,1.6,3.6,3.6,3.6h28.7c2,0,3.6-1.6,3.6-3.6V91
		c0-2-1.6-3.6-3.6-3.6H109l-3.6-3.6H94.6z M100,92.8c5,0,9,3.9,9,9s-3.9,9-9,9s-9-3.9-9-9S95,92.8,100,92.8z M100,95.5
		c-3.5,0-6.3,2.8-6.3,6.3s2.8,6.3,6.3,6.3s6.3-2.8,6.3-6.3S103.5,95.5,100,95.5z"/>
</g>
</svg>
