<?xml version="1.0" encoding="iso-8859-1"?>
<!-- Generator: Adobe Illustrator 19.0.0, SVG Export Plug-In . SVG Version: 6.00 Build 0)  -->
<svg version="1.1" id="Capa_1" xmlns="http://www.w3.org/2000/svg" xmlns:xlink="http://www.w3.org/1999/xlink" x="0px" y="0px"
	 viewBox="0 0 512 512" style="enable-background:new 0 0 512 512;" xml:space="preserve">
<path style="fill:#B0BEC5;" d="M138.667,224h234.667c5.891,0,10.667,4.776,10.667,10.667v42.667c0,5.891-4.776,10.667-10.667,10.667
	H138.667c-5.891,0-10.667-4.776-10.667-10.667v-42.667C128,228.776,132.776,224,138.667,224z"/>
<path style="fill:#37474F;" d="M32,138.667h21.333c17.673,0,32,14.327,32,32v170.667c0,17.673-14.327,32-32,32H32
	c-17.673,0-32-14.327-32-32V170.667C0,152.994,14.327,138.667,32,138.667z"/>
<path style="fill:#455A64;" d="M96,74.667h21.333c17.673,0,32,14.327,32,32v298.667c0,17.673-14.327,32-32,32H96
	c-17.673,0-32-14.327-32-32V106.667C64,88.994,78.327,74.667,96,74.667z"/>
<path style="fill:#37474F;" d="M458.667,138.667H480c17.673,0,32,14.327,32,32v170.667c0,17.673-14.327,32-32,32h-21.333
	c-17.673,0-32-14.327-32-32V170.667C426.667,152.994,440.994,138.667,458.667,138.667z"/>
<path style="fill:#455A64;" d="M394.667,74.667H416c17.673,0,32,14.327,32,32v298.667c0,17.673-14.327,32-32,32h-21.333
	c-17.673,0-32-14.327-32-32V106.667C362.667,88.994,376.994,74.667,394.667,74.667z"/>
<g>
</g>
<g>
</g>
<g>
</g>
<g>
</g>
<g>
</g>
<g>
</g>
<g>
</g>
<g>
</g>
<g>
</g>
<g>
</g>
<g>
</g>
<g>
</g>
<g>
</g>
<g>
</g>
<g>
</g>
</svg>
