<svg xmlns="http://www.w3.org/2000/svg" xmlns:xlink="http://www.w3.org/1999/xlink" xmlns:fi="http://pattern.flaticon.com/" x="0" y="0" width="360" height="201" viewBox="0 0 1050 586.25"><rect x="0px" y="0px" width="100%" height="100%" opacity="0" fill="#000000"/><defs><g transform="matrix(0.13671875 0 0 0.13671875 315 315)" id="L1_0"><path d="M418.472,68.409H25.119C11.268,68.409,0,79.677,0,93.528v256.534c0,13.851,11.268,25.119,25.119,25.119h247.983    c4.427,0,8.017-3.589,8.017-8.017c0-4.427-3.589-8.017-8.017-8.017H25.119c-5.01,0-9.086-4.076-9.086-9.086V93.528    c0-5.01,4.076-9.086,9.086-9.086h393.353c5.01,0,9.086,4.076,9.086,9.086v111.167c0,4.427,3.589,8.017,8.017,8.017    c4.427,0,8.017-3.589,8.017-8.017V93.528C443.591,79.677,432.323,68.409,418.472,68.409z" fill="#ffffff"/><path d="M401.37,222.33c-61.002,0-110.63,49.629-110.63,110.63s49.629,110.63,110.63,110.63S512,393.962,512,332.96    S462.371,222.33,401.37,222.33z M401.37,427.557c-52.161,0-94.597-42.436-94.597-94.597s42.436-94.597,94.597-94.597    s94.597,42.436,94.597,94.597S453.53,427.557,401.37,427.557z" fill="#ffffff"/><path d="M136.284,128.267H67.875c-9.136,0-16.568,7.432-16.568,16.568v51.307c0,9.136,7.432,16.568,16.568,16.568h68.409    c9.136,0,16.568-7.432,16.568-16.568v-51.307C152.852,135.699,145.42,128.267,136.284,128.267z M85.511,196.676H67.875    c-0.295,0-0.534-0.239-0.534-0.534v-51.307c0-0.295,0.239-0.534,0.534-0.534h17.637V196.676z M136.818,196.142    c0,0.295-0.239,0.534-0.534,0.534h-34.739v-18.171h9.086c4.427,0,8.017-3.589,8.017-8.017s-3.589-8.017-8.017-8.017h-9.086    v-18.171h34.739c0.295,0,0.534,0.239,0.534,0.534V196.142z" fill="#ffffff"/><path d="M345.787,119.716c-9.467,0-18.278,2.851-25.632,7.729c-7.571-5.017-16.489-7.729-25.675-7.729    c-25.638,0-46.497,20.858-46.497,46.497s20.858,46.497,46.497,46.497c9.47,0,18.284-2.853,25.641-7.735    c7.572,5.013,16.499,7.735,25.666,7.735c25.638,0,46.497-20.858,46.497-46.497S371.426,119.716,345.787,119.716z M308.114,193.443    c-4.106,2.064-8.735,3.233-13.634,3.233c-16.798,0-30.463-13.666-30.463-30.463s13.666-30.464,30.463-30.464    c4.781,0,9.448,1.127,13.652,3.234c-5.555,7.66-8.842,17.065-8.842,27.229C299.29,176.098,302.435,185.591,308.114,193.443z     M345.787,196.676c-4.773,0-9.444-1.129-13.65-3.237c5.554-7.66,8.84-17.064,8.84-27.227c0-4.427-3.589-8.017-8.017-8.017    s-8.017,3.589-8.017,8.017c0,6.037-1.772,11.666-4.814,16.404c-3.102-4.849-4.806-10.52-4.806-16.404    c0-16.798,13.666-30.464,30.463-30.464s30.464,13.666,30.464,30.464S362.585,196.676,345.787,196.676z" fill="#ffffff"/><path d="M127.733,256.534H59.324c-4.427,0-8.017,3.589-8.017,8.017s3.589,8.017,8.017,8.017h68.409    c4.427,0,8.017-3.589,8.017-8.017S132.16,256.534,127.733,256.534z" fill="#ffffff"/><path d="M264.551,307.841H59.324c-4.427,0-8.017,3.589-8.017,8.017s3.589,8.017,8.017,8.017h205.228    c4.427,0,8.017-3.589,8.017-8.017S268.979,307.841,264.551,307.841z" fill="#ffffff"/><path d="M230.347,256.534h-68.409c-4.427,0-8.017,3.589-8.017,8.017s3.589,8.017,8.017,8.017h68.409    c4.427,0,8.017-3.589,8.017-8.017S234.774,256.534,230.347,256.534z" fill="#ffffff"/><path d="M281.653,256.534h-17.102c-4.427,0-8.017,3.589-8.017,8.017s3.589,8.017,8.017,8.017h17.102    c4.427,0,8.017-3.589,8.017-8.017S286.081,256.534,281.653,256.534z" fill="#ffffff"/><path d="M466.896,293.087c-3.131-3.131-8.207-3.131-11.337,0l-71.292,71.291l-37.087-37.087c-3.131-3.131-8.207-3.131-11.337,0    c-3.131,3.131-3.131,8.206,0,11.337l42.756,42.756c1.565,1.566,3.617,2.348,5.668,2.348s4.103-0.782,5.668-2.348l76.96-76.96    C470.027,301.293,470.027,296.218,466.896,293.087z" fill="#ffffff"/></g><g transform="matrix(0.09765625 0 0 0.09765625 150 325)" id="L1_1"><path d="M477.166,53.08H34.834C15.627,53.08,0,68.706,0,87.914v336.173c0,19.207,15.627,34.834,34.834,34.834h442.333    c19.207,0,34.834-15.626,34.834-34.834V87.914C512,68.706,496.373,53.08,477.166,53.08z M495.413,424.086    c0,10.061-8.185,18.246-18.246,18.246H34.834c-10.061,0-18.246-8.185-18.246-18.246V87.914c0-10.061,8.185-18.246,18.246-18.246    h442.333c10.061,0,18.246,8.185,18.246,18.246V424.086z" fill="#ffffff"/><path d="M43.68,230.013c-4.58,0-8.294,3.713-8.294,8.294v35.387c0,4.58,3.713,8.294,8.294,8.294c4.58,0,8.294-3.713,8.294-8.294    v-35.387C51.974,233.726,48.261,230.013,43.68,230.013z" fill="#ffffff"/><path d="M43.769,300.786H43.68c-4.58,0-8.25,3.713-8.25,8.294c0,4.58,3.758,8.294,8.338,8.294c4.58,0,8.294-3.713,8.294-8.294    C52.063,304.5,48.349,300.786,43.769,300.786z" fill="#ffffff"/><path d="M468.32,230.013c-4.58,0-8.294,3.713-8.294,8.294v35.387c0,4.58,3.713,8.294,8.294,8.294c4.58,0,8.294-3.713,8.294-8.294    v-35.387C476.613,233.726,472.9,230.013,468.32,230.013z" fill="#ffffff"/><path d="M371.011,88.467H79.067c-4.58,0-8.294,3.713-8.294,8.294V415.24c0,4.58,3.713,8.294,8.294,8.294h26.543    c4.58,0,8.294-3.713,8.294-8.294c0-4.58-3.713-8.294-8.294-8.294h-18.25V105.054h283.65c4.58,0,8.294-3.713,8.294-8.294    C379.305,92.18,375.591,88.467,371.011,88.467z" fill="#ffffff"/><path d="M432.933,88.467H406.39c-4.58,0-8.294,3.713-8.294,8.294c0,4.58,3.713,8.294,8.294,8.294h18.25v301.892h-283.65    c-4.58,0-8.294,3.713-8.294,8.294c0,4.58,3.713,8.294,8.294,8.294h291.944c4.58,0,8.294-3.713,8.294-8.294V96.76    C441.227,92.18,437.513,88.467,432.933,88.467z" fill="#ffffff"/><path d="M379.853,176.933H132.147c-14.329,0-25.987,11.658-25.987,25.987v106.16c0,14.329,11.658,25.987,25.987,25.987h247.706    c14.329,0,25.987-11.658,25.987-25.987V202.92C405.84,188.591,394.182,176.933,379.853,176.933z M389.253,309.08    c0,5.183-4.216,9.4-9.4,9.4H132.147c-5.183,0-9.4-4.217-9.4-9.4V202.92c0-5.183,4.216-9.4,9.4-9.4h247.706    c5.183,0,9.4,4.217,9.4,9.4V309.08z" fill="#ffffff"/><path d="M198.75,251.511c2.295-3.873,3.617-8.385,3.617-13.205c0-14.329-11.658-25.987-25.987-25.987h-26.54    c-4.58,0-8.294,3.713-8.294,8.294v70.773c0,4.58,3.713,8.294,8.294,8.294h35.387c14.329,0,25.987-11.658,25.987-25.987    C211.214,264.315,206.219,256.081,198.75,251.511z M158.134,228.907h18.246c5.183,0,9.4,4.217,9.4,9.4s-4.216,9.4-9.4,9.4h-18.246    V228.907z M185.227,283.093h-27.093v-18.799h18.246h8.847c5.183,0,9.4,4.217,9.4,9.4S190.41,283.093,185.227,283.093z" fill="#ffffff"/><path d="M282.54,212.32c-4.58,0-8.294,3.713-8.294,8.294v44.233c0,10.061-8.185,18.246-18.246,18.246s-18.246-8.185-18.246-18.246    v-44.233c0-4.58-3.713-8.294-8.294-8.294c-4.58,0-8.294,3.713-8.294,8.294v44.233c0,19.207,15.626,34.834,34.834,34.834    s34.834-15.627,34.834-34.834v-44.233C290.834,216.033,287.12,212.32,282.54,212.32z" fill="#ffffff"/><path d="M366.427,213.502c-3.93-2.358-9.022-1.083-11.379,2.844l-19.428,32.381l-19.428-32.381    c-2.357-3.927-7.451-5.201-11.379-2.844s-5.202,7.451-2.844,11.379l25.358,42.263v24.243c0,4.58,3.713,8.294,8.294,8.294    c4.58,0,8.294-3.713,8.294-8.294v-24.243l25.358-42.264C371.629,220.953,370.355,215.858,366.427,213.502z" fill="#ffffff"/><path d="M256,123.853c-4.58,0-8.294,3.713-8.294,8.294v17.693c0,4.58,3.713,8.294,8.294,8.294c4.58,0,8.294-3.713,8.294-8.294    v-17.693C264.294,127.567,260.58,123.853,256,123.853z" fill="#ffffff"/><path d="M219.185,146.131l-8.847-17.693c-2.049-4.097-7.029-5.759-11.127-3.709c-4.097,2.048-5.758,7.03-3.709,11.127    l8.847,17.693c1.453,2.906,4.381,4.586,7.425,4.586c1.246,0,2.511-0.282,3.702-0.877    C219.573,155.21,221.234,150.228,219.185,146.131z" fill="#ffffff"/><path d="M312.789,124.729c-4.095-2.049-9.078-0.388-11.127,3.709l-8.847,17.693c-2.049,4.097-0.388,9.079,3.709,11.127    c1.191,0.596,2.456,0.877,3.702,0.877c3.042,0,5.971-1.681,7.424-4.586l8.847-17.693    C318.547,131.759,316.886,126.777,312.789,124.729z" fill="#ffffff"/><path d="M256,353.866c-4.58,0-8.294,3.713-8.294,8.294v17.693c0,4.58,3.713,8.294,8.294,8.294c4.58,0,8.294-3.713,8.294-8.294    V362.16C264.294,357.579,260.58,353.866,256,353.866z" fill="#ffffff"/><path d="M316.498,376.144l-8.847-17.693c-2.048-4.097-7.03-5.759-11.127-3.709c-4.097,2.048-5.758,7.03-3.709,11.127l8.847,17.693    c1.453,2.906,4.381,4.586,7.425,4.586c1.246,0,2.511-0.282,3.702-0.877C316.886,385.223,318.547,380.241,316.498,376.144z" fill="#ffffff"/><path d="M215.476,354.742c-4.095-2.048-9.078-0.388-11.127,3.709l-8.847,17.693c-2.049,4.097-0.388,9.079,3.709,11.127    c1.191,0.596,2.456,0.877,3.702,0.877c3.042,0,5.971-1.681,7.425-4.586l8.847-17.693    C221.234,361.772,219.573,356.79,215.476,354.742z" fill="#ffffff"/></g><g transform="matrix(0.09765587002038956 0 0 0.09765587002038956 237.50000038146823 150)" id="L1_2"><path d="M134.423,424.999c-1.105-4.288-5.478-6.864-9.763-5.761c-4.287,1.105-6.866,5.477-5.761,9.764    c0.549,2.128,0.827,4.336,0.827,6.562c0,14.439-11.748,26.187-26.187,26.187c-14.439,0-26.187-11.748-26.187-26.187    s11.747-26.187,26.186-26.187c2.222,0,4.427,0.278,6.552,0.824c4.287,1.103,8.659-1.477,9.762-5.764    c1.104-4.288-1.477-8.659-5.764-9.762c-3.43-0.883-6.98-1.331-10.55-1.331c-23.28,0-42.22,18.94-42.22,42.22    c0,23.28,18.94,42.22,42.22,42.22s42.22-18.94,42.22-42.22C135.758,431.989,135.309,428.435,134.423,424.999z" fill="#ffffff"/><path d="M339.647,424.998c-1.106-4.287-5.48-6.863-9.764-5.76c-4.287,1.105-6.866,5.477-5.761,9.764    c0.549,2.128,0.827,4.336,0.827,6.562c0,14.439-11.748,26.187-26.187,26.187s-26.187-11.748-26.187-26.187    s11.748-26.187,26.187-26.187c2.222,0,4.427,0.278,6.553,0.824c4.288,1.103,8.659-1.477,9.762-5.765    c1.104-4.287-1.477-8.659-5.766-9.762c-3.43-0.883-6.98-1.331-10.55-1.331c-23.28,0-42.22,18.94-42.22,42.22    s18.94,42.22,42.22,42.22s42.22-18.94,42.22-42.22C340.982,431.988,340.533,428.434,339.647,424.998z" fill="#ffffff"/><path d="M374.237,423.364c-4.512-29.049-25.867-53.084-54.402-61.233c-13.435-3.837-26.925-4.008-40.187-0.521l-43.843-65.763    c1.705-4.631,2.565-9.39,2.565-14.2c0-5.018-0.884-9.833-2.498-14.301l81.918-122.877c6.256-9.383,8.483-20.641,6.271-31.699    c-2.211-11.059-8.597-20.593-17.981-26.849c-1.768-1.18-3.935-1.609-6.019-1.191c-2.085,0.417-3.919,1.645-5.099,3.414    l-98.814,148.222L97.335,88.144c-2.455-3.683-7.433-4.68-11.116-2.223c-9.384,6.255-15.769,15.79-17.981,26.849    s0.015,22.316,6.271,31.699l81.985,122.979c-1.705,4.631-2.565,9.39-2.565,14.2c0,5.018,0.884,9.833,2.498,14.3l-43.774,65.663    c-13.261-3.487-26.751-3.317-40.187,0.521c-28.537,8.149-49.891,32.185-54.402,61.233c-3.92,25.234,4.281,49.758,22.499,67.283    c14.477,13.926,33.162,21.354,52.863,21.353c5.099,0,10.268-0.498,15.445-1.509c29.343-5.729,53.199-29.242,59.363-58.508    c4.702-22.324-0.321-44.757-13.796-62.483l41.714-62.571l41.714,62.571c-13.476,17.726-18.499,40.157-13.796,62.483    c6.164,29.266,30.019,52.779,59.363,58.509c5.18,1.011,10.346,1.509,15.445,1.509c19.699,0,38.387-7.428,52.863-21.353    C369.956,473.122,378.156,448.598,374.237,423.364z M303.168,104.743c2.564,3.217,4.343,7.021,5.172,11.172    c1.372,6.859-0.01,13.842-3.89,19.662l-77.883,116.824c-4.21-4.377-9.357-7.843-15.111-10.09L303.168,104.743z M137.796,385.558    c-2.03,3.041-1.742,7.069,0.696,9.793c13.007,14.53,18.129,33.966,14.051,53.327c-4.855,23.048-23.64,41.565-46.747,46.077    c-19.987,3.904-39.715-1.805-54.12-15.662c-14.4-13.853-20.877-33.267-17.77-53.267c3.501-22.538,20.766-41.939,42.962-48.278    c12.228-3.493,24.513-3.144,36.513,1.037c3.451,1.201,7.28-0.082,9.308-3.123l43.044-64.567    c4.211,4.378,9.358,7.844,15.112,10.091L137.796,385.558z M340.623,479.093c-14.405,13.857-34.131,19.565-54.12,15.662    c-23.107-4.513-41.893-23.03-46.747-46.078c-4.078-19.359,1.044-38.796,14.051-53.326c2.438-2.724,2.726-6.752,0.697-9.794    l-49.577-74.365c-1.492-2.238-4-3.57-6.669-3.57c-0.165,0-0.33,0.005-0.495,0.015c-0.51,0.031-1.009,0.093-1.507,0.162    c-0.082,0.012-0.164,0.023-0.245,0.034c-14.376-0.076-26.048-11.794-26.048-26.187c0-3.863,0.941-7.729,2.797-11.494    c1.266-2.565,1.068-5.612-0.519-7.992L87.849,135.575c-3.88-5.82-5.261-12.803-3.89-19.662c0.829-4.15,2.607-7.955,5.172-11.172    l98.24,147.36c1.584,2.376,4.312,3.729,7.164,3.555c0.51-0.031,1.009-0.093,1.508-0.162c0.082-0.012,0.164-0.023,0.245-0.034    c14.376,0.076,26.048,11.794,26.048,26.187c0,3.862-0.941,7.729-2.797,11.494c-1.266,2.565-1.068,5.612,0.519,7.992l49.552,74.329    c2.028,3.042,5.857,4.326,9.308,3.123c11.999-4.18,24.283-4.53,36.513-1.037c22.197,6.338,39.462,25.739,42.962,48.278    C361.5,445.824,355.023,465.239,340.623,479.093z" fill="#ffffff"/><path d="M196.236,273.63h-0.086c-4.427,0-7.974,3.589-7.974,8.017s3.632,8.017,8.059,8.017c4.427,0,8.016-3.589,8.016-8.017    S200.663,273.63,196.236,273.63z" fill="#ffffff"/><path d="M375.719,0h-17.102c-4.427,0-8.017,3.589-8.017,8.017c0,4.427,3.589,8.016,8.017,8.016h17.102    c4.427,0,8.017-3.589,8.017-8.016C383.736,3.589,380.147,0,375.719,0z" fill="#ffffff"/><path d="M273.108,0h-17.102c-4.427,0-8.017,3.589-8.017,8.017c0,4.427,3.589,8.016,8.017,8.016h17.102    c4.427,0,8.017-3.589,8.017-8.016C281.124,3.589,277.535,0,273.108,0z" fill="#ffffff"/><path d="M221.802,0h-25.653c-4.427,0-8.016,3.589-8.016,8.017v25.653c0,4.427,3.589,8.017,8.016,8.017s8.017-3.589,8.017-8.017    V16.033h17.636c4.427,0,8.016-3.589,8.016-8.016C229.819,3.589,226.229,0,221.802,0z" fill="#ffffff"/><path d="M324.413,0h-17.102c-4.427,0-8.017,3.589-8.017,8.017c0,4.427,3.589,8.016,8.017,8.016h17.102    c4.427,0,8.017-3.589,8.017-8.016C332.43,3.589,328.841,0,324.413,0z" fill="#ffffff"/><path d="M427.025,0h-17.102c-4.427,0-8.016,3.589-8.016,8.017c0,4.427,3.589,8.016,8.016,8.016h17.102    c4.427,0,8.017-3.589,8.017-8.016C435.041,3.589,431.453,0,427.025,0z" fill="#ffffff"/><path d="M375.719,290.732h-17.102c-4.427,0-8.017,3.589-8.017,8.017s3.589,8.016,8.017,8.016h17.102    c4.427,0,8.017-3.589,8.017-8.016S380.147,290.732,375.719,290.732z" fill="#ffffff"/><path d="M273.108,290.732h-8.551c-4.427,0-8.017,3.589-8.017,8.017s3.589,8.016,8.017,8.016h8.551    c4.427,0,8.017-3.589,8.017-8.016S277.535,290.732,273.108,290.732z" fill="#ffffff"/><path d="M324.413,290.732h-17.102c-4.427,0-8.017,3.589-8.017,8.017s3.589,8.016,8.017,8.016h17.102    c4.427,0,8.017-3.589,8.017-8.016S328.842,290.732,324.413,290.732z" fill="#ffffff"/><path d="M427.025,290.732h-17.102c-4.427,0-8.016,3.589-8.016,8.017s3.589,8.016,8.016,8.016h17.102    c4.427,0,8.017-3.589,8.017-8.016S431.453,290.732,427.025,290.732z" fill="#ffffff"/><path d="M486.882,162.468c-4.427,0-8.017,3.589-8.017,8.017v17.102c0,4.427,3.589,8.017,8.017,8.017    c4.427,0,8.016-3.589,8.016-8.017v-17.102C494.898,166.057,491.31,162.468,486.882,162.468z" fill="#ffffff"/><path d="M486.882,59.857c-4.427,0-8.017,3.589-8.017,8.016v17.102c0,4.427,3.589,8.016,8.017,8.016    c4.427,0,8.016-3.589,8.016-8.016V67.873C494.898,63.446,491.31,59.857,486.882,59.857z" fill="#ffffff"/><path d="M486.882,111.162c-4.427,0-8.017,3.589-8.017,8.017v17.102c0,4.427,3.589,8.016,8.017,8.016    c4.427,0,8.016-3.589,8.016-8.016v-17.102C494.898,114.752,491.31,111.162,486.882,111.162z" fill="#ffffff"/><path d="M196.149,162.468c-4.427,0-8.016,3.589-8.016,8.017v17.102c0,4.427,3.589,8.017,8.016,8.017s8.017-3.589,8.017-8.017    v-17.102C204.166,166.057,200.576,162.468,196.149,162.468z" fill="#ffffff"/><path d="M196.149,59.857c-4.427,0-8.016,3.589-8.016,8.016v17.102c0,4.427,3.589,8.016,8.016,8.016s8.017-3.589,8.017-8.016    V67.873C204.166,63.446,200.576,59.857,196.149,59.857z" fill="#ffffff"/><path d="M196.149,111.162c-4.427,0-8.016,3.589-8.016,8.017v17.102c0,4.427,3.589,8.016,8.016,8.016s8.017-3.589,8.017-8.016    v-17.102C204.166,114.752,200.576,111.162,196.149,111.162z" fill="#ffffff"/><path d="M486.882,213.774c-4.427,0-8.017,3.589-8.017,8.017v17.102c0,4.427,3.589,8.017,8.017,8.017    c4.427,0,8.016-3.589,8.016-8.017V221.79C494.898,217.363,491.31,213.774,486.882,213.774z" fill="#ffffff"/><path d="M486.882,0h-25.653c-4.427,0-8.016,3.589-8.016,8.017c0,4.427,3.589,8.016,8.016,8.016h17.636v17.636    c0,4.427,3.589,8.017,8.017,8.017c4.427,0,8.016-3.589,8.016-8.017V8.017C494.898,3.589,491.31,0,486.882,0z" fill="#ffffff"/><path d="M486.882,265.08c-4.427,0-8.017,3.589-8.017,8.016v17.636h-17.636c-4.427,0-8.016,3.589-8.016,8.017    s3.589,8.016,8.016,8.016h25.653c4.427,0,8.016-3.589,8.016-8.016v-25.653C494.898,268.669,491.31,265.08,486.882,265.08z" fill="#ffffff"/></g><g transform="matrix(0.09765625 0 0 0.09765625 62.5 150)" id="L1_3"><path d="M485.083,36.653H26.917C12.075,36.653,0,48.728,0,63.571V448.43c0,14.842,12.075,26.917,26.917,26.917h458.166    c14.842,0,26.917-12.075,26.917-26.917V63.571C512,48.728,499.925,36.653,485.083,36.653z M127.141,53.834h331.025v19.472H127.141    V53.834z M90.488,53.834h19.472v19.472H90.488V53.834z M53.834,53.834h19.472v19.472H53.834V53.834z M17.181,63.571    c0-5.369,4.367-9.736,9.736-9.736h9.736v19.472H17.181V63.571z M494.819,448.43c0,5.369-4.367,9.736-9.736,9.736H26.917    c-5.369,0-9.736-4.367-9.736-9.736V90.488h477.638V448.43z M494.819,73.306h-19.472V53.834h9.736c5.369,0,9.736,4.367,9.736,9.736    V73.306z" fill="#ffffff"/><path d="M466.756,109.96H45.244c-4.744,0-8.591,3.846-8.591,8.591c0,4.744,3.846,8.591,8.591,8.591h421.512    c4.744,0,8.591-3.846,8.591-8.591C475.347,113.806,471.5,109.96,466.756,109.96z" fill="#ffffff"/><path d="M222.21,345.412c1.12,0,2.254-0.07,3.39-0.212l116.206-14.526c13.444-1.68,23.581-13.163,23.581-26.71V228.51    c0-4.744-3.846-8.591-8.591-8.591h-54.98c-4.744,0-8.591,3.846-8.591,8.591s3.846,8.591,8.591,8.591h46.389v66.864    c0,4.9-3.666,9.053-8.529,9.66l-116.206,14.526c-4.492,0.561-8.735-2.006-10.324-6.242l-31.804-84.808h47.166    c4.744,0,8.591-3.846,8.591-8.591s-3.846-8.591-8.591-8.591h-53.609l-7.195-19.187c-3.917-10.447-14.046-17.466-25.203-17.466    h-14.79c-4.744,0-8.591,3.846-8.591,8.591c0,4.744,3.846,8.591,8.591,8.591h14.79c4.035,0,7.698,2.539,9.115,6.318l45.441,121.177    c1.113,2.969,2.711,5.627,4.66,7.937l-13.27,22.117c-1.856-0.405-3.781-0.627-5.757-0.627c-14.842,0-26.917,12.075-26.917,26.917    s12.075,26.917,26.917,26.917c11.839,0,21.909-7.686,25.504-18.327h104.77c3.594,10.641,13.665,18.327,25.504,18.327    c14.842,0,26.917-12.075,26.917-26.917s-12.075-26.917-26.917-26.917c-11.839,0-21.909,7.686-25.504,18.327h-104.77    c-1.106-3.276-2.826-6.27-5.023-8.847l13.246-22.077C218.299,345.187,220.236,345.412,222.21,345.412z M182.694,394.022    c-5.369,0-9.736-4.367-9.736-9.736c0-5.369,4.367-9.736,9.736-9.736c5.369,0,9.736,4.367,9.736,9.736    C192.43,389.655,188.062,394.022,182.694,394.022z M338.47,374.55c5.369,0,9.736,4.367,9.736,9.736    c0,5.369-4.367,9.736-9.736,9.736c-5.369,0-9.736-4.367-9.736-9.736C328.734,378.918,333.101,374.55,338.47,374.55z" fill="#ffffff"/><path d="M298.727,259.089c-3.355-3.355-8.794-3.355-12.148,0l-12.825,12.825V173.53c0-4.744-3.846-8.591-8.591-8.591    c-4.744,0-8.591,3.846-8.591,8.591v98.384l-12.825-12.825c-3.355-3.355-8.794-3.355-12.148,0c-3.355,3.355-3.355,8.793,0,12.148    l27.49,27.49c1.677,1.677,3.876,2.516,6.074,2.516c2.198,0,4.397-0.838,6.074-2.516l27.49-27.49    C302.082,267.883,302.082,262.444,298.727,259.089z" fill="#ffffff"/></g></defs><g fi:class="KUsePattern" opacity="0.83"><pattern id="pattern_L1_0" width="350" height="350" patternUnits="userSpaceOnUse"><use xlink:href="#L1_0" x="-350" y="-350"/><use xlink:href="#L1_0" x="0" y="-350"/><use xlink:href="#L1_0" x="350" y="-350"/><use xlink:href="#L1_0" x="-350" y="0"/><use xlink:href="#L1_0" x="0" y="0"/><use xlink:href="#L1_0" x="350" y="0"/><use xlink:href="#L1_0" x="-350" y="350"/><use xlink:href="#L1_0" x="0" y="350"/><use xlink:href="#L1_0" x="350" y="350"/></pattern><rect x="0" y="0" width="100%" height="100%" fill="url(#pattern_L1_0)"/></g><g fi:class="KUsePattern"><pattern id="pattern_L1_1" width="350" height="350" patternUnits="userSpaceOnUse"><use xlink:href="#L1_1" x="-350" y="-350"/><use xlink:href="#L1_1" x="0" y="-350"/><use xlink:href="#L1_1" x="350" y="-350"/><use xlink:href="#L1_1" x="-350" y="0"/><use xlink:href="#L1_1" x="0" y="0"/><use xlink:href="#L1_1" x="350" y="0"/><use xlink:href="#L1_1" x="-350" y="350"/><use xlink:href="#L1_1" x="0" y="350"/><use xlink:href="#L1_1" x="350" y="350"/></pattern><rect x="0" y="0" width="100%" height="100%" fill="url(#pattern_L1_1)"/></g><g fi:class="KUsePattern"><pattern id="pattern_L1_2" width="350" height="350" patternUnits="userSpaceOnUse"><use xlink:href="#L1_2" x="-350" y="-350"/><use xlink:href="#L1_2" x="0" y="-350"/><use xlink:href="#L1_2" x="350" y="-350"/><use xlink:href="#L1_2" x="-350" y="0"/><use xlink:href="#L1_2" x="0" y="0"/><use xlink:href="#L1_2" x="350" y="0"/><use xlink:href="#L1_2" x="-350" y="350"/><use xlink:href="#L1_2" x="0" y="350"/><use xlink:href="#L1_2" x="350" y="350"/></pattern><rect x="0" y="0" width="100%" height="100%" fill="url(#pattern_L1_2)"/></g><g fi:class="KUsePattern"><pattern id="pattern_L1_3" width="350" height="350" patternUnits="userSpaceOnUse"><use xlink:href="#L1_3" x="-350" y="-350"/><use xlink:href="#L1_3" x="0" y="-350"/><use xlink:href="#L1_3" x="350" y="-350"/><use xlink:href="#L1_3" x="-350" y="0"/><use xlink:href="#L1_3" x="0" y="0"/><use xlink:href="#L1_3" x="350" y="0"/><use xlink:href="#L1_3" x="-350" y="350"/><use xlink:href="#L1_3" x="0" y="350"/><use xlink:href="#L1_3" x="350" y="350"/></pattern><rect x="0" y="0" width="100%" height="100%" fill="url(#pattern_L1_3)"/></g></svg>
