<?xml version="1.0" encoding="utf-8"?>
<!-- Generator: Adobe Illustrator 19.0.0, SVG Export Plug-In . SVG Version: 6.00 Build 0)  -->
<svg version="1.1" id="Capa_1" xmlns="http://www.w3.org/2000/svg" xmlns:xlink="http://www.w3.org/1999/xlink" x="0px" y="0px"
	 viewBox="-167.1 543.4 60.2 54.6" style="enable-background:new -167.1 543.4 60.2 54.6;" xml:space="preserve">
<style type="text/css">
	.st0{fill:#2A55C5;}
	.st1{fill:#86D7FB;}
	.st2{fill:#31B6F3;}
	.st3{fill:#167CD8;}
	.st4{fill:#FFFFFF;}
</style>
<g>
	<path class="st0" d="M-121.1,563.5l-18.8-18.4c-2.3-2.3-6.1-2.3-8.5,0l-18.8,18.4v29.4h46V563.5z"/>
	<path class="st1" d="M-121.1,592.8l-19.2-14.9c-2.3-1.6-5.5-1.6-7.8,0c-6.6,4.5-19,14.9-19,14.9H-121.1z"/>
	<path class="st2" d="M-147.4,577.5h-0.1l-19.6-13.6v29c0,0,12.4-10.4,19-14.9C-147.9,577.8-147.6,577.6-147.4,577.5z"/>
	<path class="st3" d="M-140.7,577.5h-0.4c0.3,0.1,0.5,0.3,0.8,0.5l19.2,14.9v-29L-140.7,577.5z"/>
</g>
<circle class="st0" cx="-121.1" cy="583.8" r="14.2"/>
<g>
	<g>
		<path class="st4" d="M-121.1,591.9c-0.4,0-0.7-0.3-0.7-0.7v-14.9c0-0.4,0.3-0.7,0.7-0.7c0.4,0,0.7,0.3,0.7,0.7v14.9
			C-120.4,591.6-120.7,591.9-121.1,591.9z"/>
	</g>
	<g>
		<path class="st4" d="M-116.1,582c-0.2,0-0.3-0.1-0.5-0.2l-4.5-4.5l-4.5,4.5c-0.3,0.3-0.7,0.3-0.9,0c-0.3-0.3-0.3-0.7,0-0.9l5-5
			c0.3-0.3,0.7-0.3,0.9,0l5,5c0.3,0.3,0.3,0.7,0,0.9C-115.8,581.9-115.9,582-116.1,582z"/>
	</g>
</g>
</svg>
