<?xml version="1.0" encoding="utf-8"?>
<!-- Generator: Adobe Illustrator 19.0.0, SVG Export Plug-In . SVG Version: 6.00 Build 0)  -->
<svg version="1.1" id="ﾃ神xA1_ﾃ神xBB_ﾃ神xBE_ﾃ神xB9__x5F_1"
	 xmlns="http://www.w3.org/2000/svg" xmlns:xlink="http://www.w3.org/1999/xlink" x="0px" y="0px" viewBox="-17.5 519.4 116 134.8"
	 style="enable-background:new -17.5 519.4 116 134.8;" xml:space="preserve">
<style type="text/css">
	.st0{fill:#F2F2F2;}
	.st1{fill:#FFFFFF;}
	.st2{fill:#8CC63F;}
	.st3{opacity:0.1;}
</style>
<g>
	<g>
		<path class="st0" d="M40.5,533.1c24.5,0,44.3,19.8,44.3,44.3S65,621.8,40.5,621.8s-44.3-19.8-44.3-44.3S16,533.1,40.5,533.1"/>
		<path class="st1" d="M40.5,624.2c-25.8,0-46.8-21-46.8-46.8s21-46.8,46.8-46.8s46.8,21,46.8,46.8S66.3,624.2,40.5,624.2z
			 M40.5,533.2c-24.4,0-44.3,19.9-44.3,44.3s19.9,44.3,44.3,44.3s44.3-19.9,44.3-44.3S64.9,533.2,40.5,533.2z"/>
	</g>
	<g>
		<path class="st2" d="M40.1,580.9L40.1,580.9c-7.3-0.3-13-6.2-13-13.5c0-7.4,6-13.5,13.5-13.5s13.5,6,13.5,13.5
			c0,7-5.5,12.9-12.5,13.5c-0.3,0-0.6,0-0.8-0.1C40.5,580.9,40.3,580.9,40.1,580.9z M40.5,558.8c-4.8,0-8.7,3.9-8.7,8.7
			c0,4.7,3.6,8.5,8.3,8.6c0.2,0,0.3,0,0.6,0.1c0.2-0.1,0.3-0.1,0.6-0.1c4.5-0.3,8-4.1,8-8.6C49.2,562.7,45.3,558.8,40.5,558.8z"/>
		<path class="st2" d="M65.2,600.9c-0.8,0-1.5-0.4-2-1c-5-7.7-13.5-12.3-22.6-12.3s-17.7,4.6-22.6,12.3c-0.7,1.1-2.3,1.5-3.4,0.7
			c-1.1-0.7-1.5-2.3-0.7-3.4c6-9,16-14.4,26.8-14.4s20.7,5.4,26.7,14.3c0.7,1.1,0.4,2.6-0.7,3.4C66.2,600.7,65.7,600.9,65.2,600.9z"
			/>
	</g>
	<ellipse class="st3" cx="40.5" cy="644.2" rx="28.6" ry="3.1"/>
</g>
</svg>
