<?xml version="1.0" encoding="utf-8"?>
<!-- Generator: Adobe Illustrator 19.0.0, SVG Export Plug-In . SVG Version: 6.00 Build 0)  -->
<svg version="1.1" id="Capa_1" xmlns="http://www.w3.org/2000/svg" xmlns:xlink="http://www.w3.org/1999/xlink" x="0px" y="0px"
	 viewBox="-82 58 35 35" style="enable-background:new -82 58 35 35;" xml:space="preserve">
<style type="text/css">
	.st0{fill:#494949;}
	.st1{fill:#FFFFFF;}
	.st2{fill:#FFB000;}
</style>
<path d="M-56.7,58h-15.6c-1.3,0-2.4,1.1-2.4,2.4v30.3c0,1.3,1.1,2.4,2.4,2.4h15.6c1.3,0,2.4-1.1,2.4-2.4V60.4
	C-54.3,59.1-55.4,58-56.7,58z"/>
<path d="M-67,59.7h5c0.2,0,0.3,0.1,0.3,0.3c0,0.2-0.1,0.3-0.3,0.3h-5c-0.2,0-0.3-0.1-0.3-0.3C-67.3,59.8-67.2,59.7-67,59.7z"/>
<circle class="st0" cx="-64.5" cy="90.6" r="1.2"/>
<rect x="-73" y="61.7" class="st1" width="17" height="26.9"/>
<polygon class="st2" points="-70.3,83.7 -66.8,78.9 -68.9,78.9 -65.5,74 -67.6,74 -63,67.7 -58.7,67.7 -62.2,72.5 -60.1,72.5 
	-63.5,77.3 -61.4,77.3 "/>
</svg>
